<?xml version="1.0" encoding="UTF-8"?>
<!DOCTYPE svg PUBLIC "-//W3C//DTD SVG 1.1//EN" "http://www.w3.org/Graphics/SVG/1.1/DTD/svg11.dtd">
<!-- Creator: CorelDRAW 2017 -->
<svg xmlns="http://www.w3.org/2000/svg" xml:space="preserve" width="543px" height="543px" version="1.1" style="shape-rendering:geometricPrecision; text-rendering:geometricPrecision; image-rendering:optimizeQuality; fill-rule:evenodd; clip-rule:evenodd"
viewBox="0 0 13371 13371"
 xmlns:xlink="http://www.w3.org/1999/xlink">
 <defs>
  <style type="text/css">
   <![CDATA[
    .fil2 {fill:#42A5F7}
    .fil1 {fill:#793B3B}
    .fil0 {fill:#F3B6DA}
   ]]>
  </style>
 </defs>
 <g id="Слой_x0020_1">
  <metadata id="CorelCorpID_0Corel-Layer"/>
  <path id="Ellipse_x0020_11.svg" class="fil0" d="M13371 6685c0,-3692 -2994,-6685 -6686,-6685 -3692,0 -6685,2993 -6685,6685 0,3692 2993,6686 6685,6686 3692,0 6686,-2994 6686,-6686zm-4203 0c0,-1405 -1112,-2544 -2483,-2544 -1371,0 -2482,1139 -2482,2544 0,1405 1111,2544 2482,2544 1371,0 2483,-1139 2483,-2544z"/>
  <path id="Vector_x0020_1.svg" class="fil1" d="M7452 848c-885,111 -2323,-368 -3196,246 -740,521 -946,831 -1745,1131 -798,299 -1531,1499 -1708,2285 -254,1131 -602,1440 -418,2606 148,934 750,1474 983,2212 234,737 345,1671 910,2101 565,430 1118,160 1720,430 938,421 996,738 1573,738 1340,0 1464,-527 2360,-344 1204,245 1856,-74 2286,-517 422,-434 513,-513 878,-831l19 -16c833,-726 333,-1470 995,-2163 1303,-1364 1426,-2372 738,-3355 -556,-795 -752,-2443 -2200,-3073 -566,-245 -381,-565 -897,-958 -664,-506 -1414,-602 -2298,-492zm-2107 3281c416,-697 1386,-654 1861,-360 339,209 512,344 954,651 442,307 713,98 1222,661 540,597 548,641 548,1368 0,648 -548,915 -548,1801 0,886 -942,1377 -1450,1466 -483,85 -1335,176 -1749,-89 -575,-369 -1383,89 -1797,-567 -473,-751 -945,-990 -945,-1631 0,-466 375,-625 473,-1314 68,-478 -130,-688 142,-1034 519,-661 872,-255 1289,-952z"/>
  <g id="посыпка.svg">
   <path class="fil2" d="M2346 9013l-449 -229c-99,-50 -238,-156 -185,-260 53,-104 231,-47 319,-3l449 230c153,78 383,195 316,326 -67,132 -297,14 -450,-64z"/>
   <path class="fil2" d="M4305 2909l-97 -495c-21,-108 -24,-283 90,-305 115,-23 181,152 200,249l97 494c33,169 83,422 -62,450 -145,29 -194,-224 -228,-393z"/>
   <path class="fil2" d="M3136 5715l133 -486c29,-107 104,-265 217,-234 112,30 93,216 67,311l-132 486c-45,166 -113,415 -256,376 -142,-38 -74,-287 -29,-453z"/>
   <path class="fil2" d="M10717 7624l471 179c104,39 254,128 212,238 -41,109 -224,72 -316,37l-471 -178c-161,-61 -402,-152 -350,-290 52,-138 293,-47 454,14z"/>
   <path class="fil2" d="M7638 2139l-450 -228c-98,-50 -238,-156 -185,-260 53,-104 231,-48 319,-3l449 228c154,78 384,195 317,326 -67,132 -297,15 -450,-63z"/>
   <path class="fil2" d="M7053 11701l488 127c107,28 265,101 236,214 -30,113 -216,96 -311,71l-487 -127c-167,-43 -417,-109 -379,-251 37,-143 287,-78 453,-34z"/>
   <path class="fil2" d="M12648 6885l92 -496c20,-108 82,-272 196,-250 115,21 112,208 94,304l-92 496c-32,169 -79,423 -224,396 -145,-27 -98,-281 -66,-450z"/>
   <path class="fil2" d="M10691 4438l316 -393c69,-86 201,-200 292,-127 91,73 -1,236 -62,312l-316 393c-108,134 -270,335 -385,242 -115,-92 47,-293 155,-427z"/>
   <path class="fil2" d="M4399 10584l0 -504c0,-110 31,-282 148,-282 117,0 147,184 147,282l0 504c0,172 0,430 -147,430 -148,0 -148,-258 -148,-430z"/>
   <path class="fil2" d="M9712 10456l-480 155c-105,34 -278,57 -314,-54 -36,-111 130,-197 224,-227l479 -155c164,-52 410,-131 455,9 45,140 -200,219 -364,272z"/>
   <path class="fil2" d="M8408 3891l500 -61c110,-13 284,-4 298,112 14,116 -165,169 -263,181l-500 61c-171,20 -427,52 -445,-95 -17,-146 239,-177 410,-198z"/>
   <path class="fil2" d="M1747 4215l-300 -405c-66,-89 -144,-245 -51,-315 94,-69 229,60 287,139l301 405c102,138 256,345 138,433 -119,88 -272,-119 -375,-257z"/>
  </g>
 </g>
</svg>
