<svg width="226" height="115" viewBox="0 0 226 115" fill="none" xmlns="http://www.w3.org/2000/svg">
<path d="M167.226 0H49.2345C47.6851 0 46.3905 1.17999 46.2474 2.72284L37.8041 93.7228C37.6409 95.4816 39.0249 97 40.7912 97H49.5C49.5 89.5 53.5 72 71 72C88.5 72 92.5 89.5 93 97H159.251C160.807 97 162.104 95.8113 162.24 94.2619L170.214 3.26188C170.368 1.50839 168.986 0 167.226 0Z" fill="#CE9473"/>
<ellipse rx="14.467" ry="15.7204" transform="matrix(0.989891 0.14183 -0.136564 0.990631 195.406 96.4316)" fill="#793B3B"/>
<ellipse rx="14.467" ry="15.7204" transform="matrix(0.989891 0.14183 -0.136564 0.990631 71.0011 96.7388)" fill="#793B3B"/>
<path d="M216.5 97.5H220.207C221.781 97.5 223.087 96.2836 223.199 94.7137L225.922 56.5964C225.972 55.8885 225.77 55.1856 225.351 54.6126L207.899 30.73C207.334 29.957 206.434 29.5 205.477 29.5H177.267C175.704 29.5 174.403 30.7002 174.277 32.2581L169.262 94.2581C169.121 96.0046 170.5 97.5 172.252 97.5H174.5C174.5 90.5 177.5 73.5 195 73.5C212.5 73.5 216.5 90.5 216.5 97.5Z" fill="#CE9473"/>
<path d="M185.5 52H213.5L201.5 35H187L185.5 52Z" fill="#E5E5E5"/>
<rect x="26" y="9.5" width="40" height="8" rx="4" fill="#E5E5E5"/>
<rect x="33" y="30.5" width="40" height="8" rx="4" fill="#E5E5E5"/>
<rect x="33" y="51.5" width="40" height="8" rx="4" fill="#E5E5E5"/>
<rect y="17.5" width="66" height="8" rx="4" fill="#CE9473"/>
<rect x="12" y="38.5" width="66" height="8" rx="4" fill="#CE9473"/>
<rect x="26" y="59.5" width="66" height="8" rx="4" fill="#CE9473"/>
<ellipse cx="71.2406" cy="96.1818" rx="6.5" ry="7" transform="rotate(6.40843 71.2406 96.1818)" fill="#CE9473"/>
<ellipse cx="195.241" cy="97.1818" rx="6.5" ry="7" transform="rotate(6.40843 195.241 97.1818)" fill="#CE9473"/>
</svg>
