<svg width="232" height="232" viewBox="0 0 232 232" fill="none" xmlns="http://www.w3.org/2000/svg">
<path d="M194.504 173.003C190.23 162.88 184.028 153.684 176.243 145.929C168.482 138.151 159.288 131.95 149.169 127.668C149.078 127.623 148.988 127.6 148.897 127.555C163.012 117.359 172.188 100.752 172.188 82.0156C172.188 50.9766 147.039 25.8281 116 25.8281C84.961 25.8281 59.8126 50.9766 59.8126 82.0156C59.8126 100.752 68.9884 117.359 83.1032 127.577C83.0126 127.623 82.922 127.645 82.8313 127.691C72.6813 131.973 63.5735 138.113 55.7571 145.952C47.9794 153.713 41.7783 162.907 37.4962 173.026C33.2894 182.932 31.0206 193.553 30.8126 204.314C30.8065 204.556 30.8489 204.796 30.9373 205.022C31.0257 205.247 31.1582 205.452 31.3272 205.625C31.4961 205.798 31.6979 205.936 31.9208 206.03C32.1437 206.124 32.3832 206.172 32.6251 206.172H46.2188C47.2157 206.172 48.0087 205.379 48.0313 204.405C48.4845 186.914 55.5079 170.534 67.9235 158.118C80.7696 145.272 97.8298 138.203 116 138.203C134.17 138.203 151.231 145.272 164.077 158.118C176.492 170.534 183.516 186.914 183.969 204.405C183.991 205.402 184.784 206.172 185.781 206.172H199.375C199.617 206.172 199.856 206.124 200.079 206.03C200.302 205.936 200.504 205.798 200.673 205.625C200.842 205.452 200.974 205.247 201.063 205.022C201.151 204.796 201.194 204.556 201.188 204.314C200.961 193.484 198.718 182.949 194.504 173.003V173.003ZM116 120.984C105.601 120.984 95.8134 116.929 88.4501 109.566C81.0868 102.202 77.0313 92.4148 77.0313 82.0156C77.0313 71.6164 81.0868 61.8289 88.4501 54.4656C95.8134 47.1023 105.601 43.0469 116 43.0469C126.399 43.0469 136.187 47.1023 143.55 54.4656C150.913 61.8289 154.969 71.6164 154.969 82.0156C154.969 92.4148 150.913 102.202 143.55 109.566C136.187 116.929 126.399 120.984 116 120.984Z" fill="black"/>
</svg>
