<svg width="250" height="250" viewBox="0 0 250 250" fill="none" xmlns="http://www.w3.org/2000/svg">
<path d="M225.342 69.2382C222.069 61.661 217.351 54.7946 211.45 49.0234C205.545 43.2349 198.583 38.635 190.942 35.4736C183.019 32.1824 174.522 30.4978 165.942 30.5175C153.906 30.5175 142.163 33.8134 131.958 40.039C129.517 41.5282 127.197 43.164 125 44.9462C122.803 43.164 120.483 41.5282 118.042 40.039C107.837 33.8134 96.0937 30.5175 84.0576 30.5175C75.3906 30.5175 66.9922 32.1777 59.0576 35.4736C51.3916 38.6474 44.4824 43.2128 38.5498 49.0234C32.6415 54.7881 27.9218 61.6561 24.6582 69.2382C21.2646 77.1239 19.5312 85.498 19.5312 94.1161C19.5312 102.246 21.1914 110.718 24.4873 119.336C27.2461 126.538 31.2012 134.009 36.2549 141.553C44.2627 153.491 55.2734 165.942 68.9453 178.564C91.6016 199.487 114.038 213.94 114.99 214.526L120.776 218.237C123.34 219.873 126.636 219.873 129.199 218.237L134.985 214.526C135.938 213.916 158.35 199.487 181.03 178.564C194.702 165.942 205.713 153.491 213.721 141.553C218.774 134.009 222.754 126.538 225.488 119.336C228.784 110.718 230.444 102.246 230.444 94.1161C230.469 85.498 228.735 77.1239 225.342 69.2382V69.2382ZM125 198.926C125 198.926 38.0859 143.237 38.0859 94.1161C38.0859 69.2382 58.667 49.0722 84.0576 49.0722C101.904 49.0722 117.383 59.0331 125 73.5839C132.617 59.0331 148.096 49.0722 165.942 49.0722C191.333 49.0722 211.914 69.2382 211.914 94.1161C211.914 143.237 125 198.926 125 198.926Z" fill="black"/>
</svg>
