<svg width="170" height="170" viewBox="0 0 170 170" fill="none" xmlns="http://www.w3.org/2000/svg">
<path d="M168.869 157.246L114.088 102.466C122.589 91.4758 127.187 78.0391 127.187 63.9062C127.187 46.9891 120.585 31.1266 108.646 19.1664C96.707 7.20625 80.8023 0.625 63.9062 0.625C47.0102 0.625 31.1055 7.22734 19.1664 19.1664C7.20625 31.1055 0.625 46.9891 0.625 63.9062C0.625 80.8023 7.22734 96.707 19.1664 108.646C31.1055 120.606 46.9891 127.187 63.9062 127.187C78.0391 127.187 91.4547 122.589 102.445 114.109L157.225 168.869C157.386 169.029 157.576 169.157 157.786 169.244C157.996 169.331 158.221 169.376 158.448 169.376C158.676 169.376 158.901 169.331 159.111 169.244C159.321 169.157 159.511 169.029 159.672 168.869L168.869 159.693C169.029 159.532 169.157 159.342 169.244 159.132C169.331 158.922 169.376 158.697 169.376 158.47C169.376 158.242 169.331 158.017 169.244 157.807C169.157 157.597 169.029 157.407 168.869 157.246ZM97.3187 97.3187C88.375 106.241 76.5203 111.156 63.9062 111.156C51.2922 111.156 39.4375 106.241 30.4937 97.3187C21.5711 88.375 16.6562 76.5203 16.6562 63.9062C16.6562 51.2922 21.5711 39.4164 30.4937 30.4937C39.4375 21.5711 51.2922 16.6562 63.9062 16.6562C76.5203 16.6562 88.3961 21.55 97.3187 30.4937C106.241 39.4375 111.156 51.2922 111.156 63.9062C111.156 76.5203 106.241 88.3961 97.3187 97.3187Z" fill="black"/>
</svg>
