<svg width="238" height="238" viewBox="0 0 238 238" fill="none" xmlns="http://www.w3.org/2000/svg">
<path d="M214.502 163.137H76.0948L83.0442 148.982L198.511 148.773C202.416 148.773 205.763 145.984 206.46 142.126L222.451 52.6203C222.869 50.2729 222.242 47.8557 220.708 46.0195C219.95 45.1159 219.004 44.388 217.936 43.8863C216.869 43.3846 215.705 43.1212 214.525 43.1143L67.6347 42.6262L66.3796 36.7227C65.5894 32.9574 62.196 30.2148 58.3378 30.2148H22.4286C20.2526 30.2148 18.1658 31.0792 16.6272 32.6179C15.0885 34.1565 14.2241 36.2434 14.2241 38.4193C14.2241 40.5953 15.0885 42.6821 16.6272 44.2208C18.1658 45.7594 20.2526 46.6238 22.4286 46.6238H51.6905L57.1757 72.7016L70.6794 138.082L53.2942 166.461C52.3914 167.679 51.8476 169.126 51.7244 170.638C51.6012 172.149 51.9034 173.665 52.597 175.014C53.9915 177.78 56.8038 179.523 59.9183 179.523H74.5144C71.4027 183.656 69.7219 188.69 69.7265 193.863C69.7265 207.018 80.4179 217.71 93.5729 217.71C106.728 217.71 117.419 207.018 117.419 193.863C117.419 188.68 115.7 183.637 112.632 179.523H150.075C146.963 183.656 145.282 188.69 145.287 193.863C145.287 207.018 155.978 217.71 169.133 217.71C182.288 217.71 192.98 207.018 192.98 193.863C192.98 188.68 191.26 183.637 188.192 179.523H214.525C219.034 179.523 222.73 175.85 222.73 171.318C222.716 169.144 221.844 167.064 220.302 165.532C218.761 163.999 216.676 163.138 214.502 163.137V163.137ZM71.0513 58.8027L204.88 59.2443L191.771 132.643L86.6468 132.829L71.0513 58.8027ZM93.5729 201.208C89.5288 201.208 86.2284 197.907 86.2284 193.863C86.2284 189.819 89.5288 186.519 93.5729 186.519C97.6171 186.519 100.917 189.819 100.917 193.863C100.917 195.811 100.144 197.679 98.7663 199.056C97.3889 200.434 95.5208 201.208 93.5729 201.208V201.208ZM169.133 201.208C165.089 201.208 161.789 197.907 161.789 193.863C161.789 189.819 165.089 186.519 169.133 186.519C173.177 186.519 176.478 189.819 176.478 193.863C176.478 195.811 175.704 197.679 174.327 199.056C172.949 200.434 171.081 201.208 169.133 201.208V201.208Z" fill="black"/>
</svg>
