<svg width="38" height="36" viewBox="0 0 38 36" fill="none" xmlns="http://www.w3.org/2000/svg">
<path d="M17.4519 0V6.92308H20.3606V0H17.4519ZM6.54447 4.284L4.49969 6.23077L9.63492 11.1642L11.7262 9.17308L6.54447 4.284ZM31.268 4.284L26.0863 9.17308L28.1776 11.1642L33.3128 6.23077L31.268 4.284ZM18.9062 8.30769C13.2998 8.30769 8.72596 12.6623 8.72596 18C8.72596 23.3377 13.2998 27.6923 18.9062 27.6923C24.5127 27.6923 29.0865 23.3377 29.0865 18C29.0865 12.6623 24.5127 8.30769 18.9062 8.30769ZM18.9062 11.0769C22.9391 11.0769 26.1779 14.1605 26.1779 18C26.1779 21.8395 22.9391 24.9231 18.9062 24.9231C14.8734 24.9231 11.6346 21.8395 11.6346 18C11.6346 14.1605 14.8734 11.0769 18.9062 11.0769ZM0 16.6154V19.3846H7.27163V16.6154H0ZM30.5409 16.6154V19.3846H37.8125V16.6154H30.5409ZM9.63492 24.8372L4.49969 29.7692L6.54447 31.716L11.7262 26.8269L9.63492 24.8372ZM28.1776 24.8372L26.0863 26.8269L31.268 31.716L33.3128 29.7692L28.1776 24.8372ZM17.4519 29.0769V36H20.3606V29.0769H17.4519Z" fill="black"/>
</svg>
