<svg width="102" height="102" viewBox="0 0 102 102" fill="none" xmlns="http://www.w3.org/2000/svg">
<g clip-path="url(#clip0_399_101)">
<path d="M66.6538 0H35.343C6.77027 0 -0.00317383 6.77344 -0.00317383 35.3462V66.657C-0.00317383 95.2298 6.77027 102.003 35.343 102.003H66.6538C95.2266 102.003 102 95.2298 102 66.657V35.3462C102 6.77344 95.1596 0 66.6538 0ZM82.3427 72.7642H74.9381C72.1331 72.7642 71.2693 70.5394 66.2235 65.4266C61.8407 61.1777 59.8995 60.6135 58.8189 60.6135C57.2921 60.6135 56.8586 61.0438 56.8586 63.138V69.8286C56.8586 71.6231 56.2944 72.7005 51.5451 72.7005C43.6911 72.7005 34.9765 67.9511 28.866 59.1026C19.651 46.1359 17.1296 36.4236 17.1296 34.4154C17.1296 33.3349 17.56 32.3244 19.635 32.3244H27.0555C28.933 32.3244 29.647 33.1882 30.3769 35.1964C34.0457 45.7884 40.1561 55.0672 42.6775 55.0672C43.6082 55.0672 44.0385 54.6369 44.0385 52.2622V41.3227C43.7548 36.2769 41.0996 35.8434 41.0996 34.0521C41.0996 33.1882 41.8136 32.3244 42.958 32.3244H54.6274C56.2052 32.3244 56.7853 33.1882 56.7853 35.0466V49.8047C56.7853 51.3984 57.4993 51.9626 57.9296 51.9626C58.8604 51.9626 59.6573 51.3984 61.3817 49.6708C66.7112 43.6943 70.5298 34.4792 70.5298 34.4792C71.0271 33.3986 71.8909 32.3882 73.7683 32.3882H81.1888C83.4137 32.3882 83.911 33.5325 83.4137 35.1263C82.483 39.4421 73.4018 52.2591 73.4018 52.2591C72.6208 53.5532 72.3212 54.1174 73.4018 55.5613C74.1986 56.6419 76.7901 58.8827 78.5145 60.8908C81.6861 64.4927 84.1245 67.5144 84.7748 69.6054C85.5047 71.6805 84.4273 72.7611 82.3331 72.7611L82.3427 72.7642Z" fill="#0077FF"/>
</g>
<defs>
<clipPath id="clip0_399_101">
<rect width="102" height="102" fill="white"/>
</clipPath>
</defs>
</svg>
