<svg width="127" height="127" viewBox="0 0 127 127" fill="none" xmlns="http://www.w3.org/2000/svg">
<path d="M86.8365 7.9375H70.9615C55.0865 7.9375 38.9337 19.8438 38.9337 46.1169C38.6018 52.2067 39.961 58.2696 42.8608 63.6349C45.7605 69.0002 50.088 73.4588 55.3644 76.5175L35.719 111.641C35.2688 112.404 35.0312 113.275 35.0312 114.161C35.0312 115.048 35.2688 115.918 35.719 116.681C36.1264 117.38 36.7038 117.965 37.3976 118.382C38.0915 118.798 38.8792 119.032 39.6878 119.063H49.57C50.5726 119.111 51.5663 118.852 52.4175 118.32C53.2688 117.788 53.937 117.009 54.3325 116.086L72.5491 80.3672H73.8984V114.578C73.9029 115.189 74.0313 115.793 74.2758 116.354C74.5203 116.914 74.8759 117.419 75.321 117.838C75.7661 118.257 76.2915 118.582 76.8656 118.792C77.4396 119.003 78.0504 119.095 78.6609 119.063H87.3128C88.4787 119.106 89.6149 118.689 90.4762 117.902C91.3375 117.115 91.8548 116.021 91.9165 114.856V12.7794C91.9324 12.1591 91.8258 11.5418 91.603 10.9627C91.3802 10.3837 91.0454 9.85419 90.6179 9.40454C90.1904 8.95489 89.6784 8.59389 89.1113 8.34217C88.5442 8.09045 87.9331 7.95294 87.3128 7.9375H86.8365ZM74.2159 64.6113H71.8744C62.7462 64.6113 57.3487 57.1897 57.3487 44.7675C57.3487 29.2894 64.2147 23.7728 70.6044 23.7728H74.335L74.2159 64.6113Z" fill="#D61E3B"/>
</svg>
