<svg width="171" height="184" viewBox="0 0 171 184" fill="none" xmlns="http://www.w3.org/2000/svg">
<path d="M9.50488 134.753H159.887" stroke="black" stroke-miterlimit="10"/>
<path d="M86.7995 134.428C75.6933 134.537 64.5871 134.645 53.481 134.753" stroke="black" stroke-miterlimit="10"/>
<path d="M55.0142 134.754L74.0293 102.799" stroke="black" stroke-miterlimit="10"/>
<path d="M81.5083 134.428C92.6145 134.537 103.721 134.645 114.827 134.753" stroke="black" stroke-miterlimit="10"/>
<path d="M114.378 134.754L95.3628 102.799" stroke="black" stroke-miterlimit="10"/>
<path d="M72.3276 102.799H96.7089" stroke="black" stroke-miterlimit="10"/>
<path d="M26.0143 134.428C20.4799 134.573 14.9455 134.717 9.41113 134.88" stroke="black" stroke-miterlimit="10"/>
<path d="M9.91602 134.862L19.3768 91.835" stroke="black" stroke-miterlimit="10"/>
<path d="M23.3784 134.411C28.9128 134.555 34.4472 134.7 39.9816 134.862" stroke="black" stroke-miterlimit="10"/>
<path d="M39.4765 134.844L30.0156 91.835" stroke="black" stroke-miterlimit="10"/>
<path d="M18.5356 91.835H30.6889" stroke="black" stroke-miterlimit="10"/>
<path d="M147.622 134.645C142.087 134.79 136.553 134.934 131.019 135.097" stroke="black" stroke-miterlimit="10"/>
<path d="M131.523 135.079L140.984 92.0518" stroke="black" stroke-miterlimit="10"/>
<path d="M144.985 134.645C150.52 134.79 156.054 134.934 161.589 135.097" stroke="black" stroke-miterlimit="10"/>
<path d="M161.084 135.061L151.604 92.0518" stroke="black" stroke-miterlimit="10"/>
<path d="M140.143 92.0518H152.278" stroke="black" stroke-miterlimit="10"/>
<path d="M24.6309 91.835V134.411" stroke="black" stroke-miterlimit="10"/>
<path d="M146.294 91.835V134.411" stroke="black" stroke-miterlimit="10"/>
<path d="M77.3576 71.9829H73.562V98.3556H77.3576V71.9829Z" stroke="black" stroke-miterlimit="10"/>
<path d="M95.1383 71.9829H91.3428V98.3556H95.1383V71.9829Z" stroke="black" stroke-miterlimit="10"/>
<path d="M86.7619 71.9829H82.9663V98.3556H86.7619V71.9829Z" stroke="black" stroke-miterlimit="10"/>
<path d="M54.8271 35.8018L74.1975 67.5393" stroke="black" stroke-miterlimit="10"/>
<path d="M114.172 35.1875L95.5122 67.3224" stroke="black" stroke-miterlimit="10"/>
<path d="M72.4775 67.5576L96.8775 67.3047" stroke="black" stroke-miterlimit="10"/>
<path d="M77.6377 67.5033L66.4941 36.687" stroke="black" stroke-miterlimit="10"/>
<path d="M90.7446 67.3769L103.758 36.687" stroke="black" stroke-miterlimit="10"/>
<path d="M82.5552 67.4493L76.9834 43.6416" stroke="black" stroke-miterlimit="10"/>
<path d="M92.2217 44.1289L85.6216 67.4308" stroke="black" stroke-miterlimit="10"/>
<path d="M66.4943 36.6869L54.8271 35.8018" stroke="black" stroke-miterlimit="10"/>
<path d="M103.758 36.6868L114.172 35.1875" stroke="black" stroke-miterlimit="10"/>
<path d="M92.2217 44.1293L76.9834 43.6416" stroke="black" stroke-miterlimit="10"/>
<path d="M85.3038 38.3849C93.6887 38.3849 100.486 31.818 100.486 23.7174C100.486 15.6167 93.6887 9.0498 85.3038 9.0498C76.9189 9.0498 70.1216 15.6167 70.1216 23.7174C70.1216 31.818 76.9189 38.3849 85.3038 38.3849Z" stroke="black" stroke-miterlimit="10"/>
<path d="M88.0894 0.90332H82.9663V9.3209H88.0894V0.90332Z" stroke="black" stroke-miterlimit="10"/>
<path d="M27.1738 83.417H22.0508V91.8346H27.1738V83.417Z" stroke="black" stroke-miterlimit="10"/>
<path d="M148.762 83.0918H143.639V91.5094H148.762V83.0918Z" stroke="black" stroke-miterlimit="10"/>
<path d="M18.972 175.324C18.276 174.796 17.652 174.04 17.1 173.056C16.572 172.072 16.032 171.016 15.48 169.888C14.952 168.736 14.352 167.656 13.68 166.648C13.032 165.616 12.252 164.776 11.34 164.128C10.452 163.456 9.36 163.12 8.064 163.12V161.464C8.976 161.464 9.732 161.308 10.332 160.996C10.956 160.66 11.544 160.132 12.096 159.412C12.648 158.668 13.284 157.696 14.004 156.496C14.748 155.296 15.372 154.312 15.876 153.544C16.38 152.752 16.836 152.128 17.244 151.672C17.676 151.216 18.12 150.904 18.576 150.736C19.056 150.544 19.632 150.448 20.304 150.448C20.592 150.448 20.94 150.472 21.348 150.52C21.756 150.544 22.092 150.592 22.356 150.664C22.332 151.216 22.308 151.78 22.284 152.356C22.284 152.932 22.296 153.52 22.32 154.12C22.368 154.72 22.416 155.32 22.464 155.92C22.2 156.016 21.888 156.1 21.528 156.172C21.192 156.22 20.928 156.244 20.736 156.244C20.568 155.26 20.352 154.576 20.088 154.192C19.824 153.784 19.5 153.58 19.116 153.58C18.492 153.58 17.952 153.904 17.496 154.552C17.064 155.176 16.5 156.064 15.804 157.216C15.084 158.44 14.472 159.388 13.968 160.06C13.488 160.732 13.032 161.224 12.6 161.536C12.192 161.824 11.736 162.064 11.232 162.256L11.124 161.716C11.892 161.74 12.564 161.836 13.14 162.004C13.74 162.172 14.292 162.448 14.796 162.832C15.3 163.216 15.792 163.756 16.272 164.452C16.776 165.124 17.316 166 17.892 167.08C18.636 168.52 19.248 169.66 19.728 170.5C20.232 171.316 20.664 171.928 21.024 172.336C21.408 172.744 21.792 173.02 22.176 173.164C22.584 173.284 23.064 173.368 23.616 173.416C23.616 173.536 23.604 173.692 23.58 173.884C23.58 174.076 23.568 174.268 23.544 174.46C23.52 174.652 23.484 174.832 23.436 175C22.788 175 22.236 175 21.78 175C21.324 175.024 20.88 175.06 20.448 175.108C20.04 175.156 19.548 175.228 18.972 175.324ZM2.016 175.108C2.016 174.772 2.028 174.484 2.052 174.244C2.076 173.98 2.124 173.752 2.196 173.56C2.844 173.512 3.348 173.404 3.708 173.236C4.068 173.044 4.32 172.732 4.464 172.3C4.608 171.844 4.68 171.22 4.68 170.428V155.236C4.68 154.42 4.608 153.796 4.464 153.364C4.32 152.932 4.068 152.62 3.708 152.428C3.348 152.236 2.844 152.128 2.196 152.104C2.124 151.912 2.076 151.684 2.052 151.42C2.028 151.156 2.016 150.868 2.016 150.556C2.472 150.58 2.928 150.604 3.384 150.628C3.864 150.628 4.356 150.64 4.86 150.664C5.364 150.664 5.868 150.664 6.372 150.664C6.9 150.664 7.404 150.664 7.884 150.664C8.364 150.64 8.832 150.628 9.288 150.628C9.768 150.604 10.248 150.58 10.728 150.556C10.728 150.868 10.716 151.156 10.692 151.42C10.668 151.684 10.62 151.912 10.548 152.104C9.924 152.128 9.42 152.236 9.036 152.428C8.676 152.62 8.424 152.932 8.28 153.364C8.136 153.796 8.064 154.42 8.064 155.236V170.428C8.064 171.22 8.136 171.844 8.28 172.3C8.424 172.732 8.676 173.044 9.036 173.236C9.42 173.404 9.924 173.512 10.548 173.56C10.62 173.752 10.668 173.98 10.692 174.244C10.716 174.484 10.728 174.772 10.728 175.108C10.008 175.06 9.276 175.024 8.532 175C7.788 175 7.068 175 6.372 175C5.676 175 4.932 175 4.14 175C3.348 175.024 2.64 175.06 2.016 175.108ZM36.7464 175.324C36.4824 175.204 36.2664 174.988 36.0984 174.676C35.9544 174.364 35.8824 173.872 35.8824 173.2C35.8824 172.984 35.8944 172.732 35.9184 172.444C35.9424 172.132 35.9904 171.856 36.0624 171.616H36.1344C36.0624 172 35.8944 172.42 35.6304 172.876C35.3904 173.308 35.0664 173.692 34.6584 174.028C34.2504 174.388 33.7344 174.688 33.1104 174.928C32.4864 175.144 31.7304 175.252 30.8424 175.252C29.3304 175.252 28.1784 174.916 27.3864 174.244C26.5944 173.548 26.1984 172.612 26.1984 171.436C26.1984 170.5 26.4144 169.708 26.8464 169.06C27.3024 168.388 27.8784 167.836 28.5744 167.404C29.2944 166.948 30.0624 166.588 30.8784 166.324C31.7184 166.06 32.5344 165.856 33.3264 165.712C34.1184 165.568 34.8144 165.448 35.4144 165.352C35.4144 164.368 35.3904 163.6 35.3424 163.048C35.3184 162.496 35.2464 162.064 35.1264 161.752C35.0304 161.416 34.8744 161.128 34.6584 160.888C34.3704 160.528 34.0344 160.264 33.6504 160.096C33.2904 159.904 32.8824 159.808 32.4264 159.808C31.6344 159.808 31.0104 160.06 30.5544 160.564C30.0984 161.044 29.7744 161.608 29.5824 162.256C29.3904 162.904 29.2824 163.48 29.2584 163.984C28.9944 163.984 28.6584 163.972 28.2504 163.948C27.8664 163.9 27.5784 163.828 27.3864 163.732C27.4344 163.132 27.4464 162.46 27.4224 161.716C27.3984 160.972 27.3264 160.336 27.2064 159.808C28.1904 159.304 29.2224 158.908 30.3024 158.62C31.4064 158.332 32.4144 158.188 33.3264 158.188C34.2144 158.188 34.9704 158.32 35.5944 158.584C36.2424 158.824 36.7584 159.148 37.1424 159.556C37.7664 160.156 38.1744 160.948 38.3664 161.932C38.5584 162.892 38.6544 164.176 38.6544 165.784V169.744C38.6544 170.416 38.7024 170.956 38.7984 171.364C38.9184 171.748 39.1344 172.036 39.4464 172.228C39.7584 172.396 40.2384 172.504 40.8864 172.552C40.8864 172.792 40.8744 173.068 40.8504 173.38C40.8264 173.668 40.7664 173.944 40.6704 174.208C40.0704 174.232 39.3984 174.352 38.6544 174.568C37.9344 174.76 37.2984 175.012 36.7464 175.324ZM31.8504 173.272C32.3784 173.272 32.9184 173.104 33.4704 172.768C34.0224 172.408 34.4784 171.856 34.8384 171.112C35.2224 170.368 35.4144 169.396 35.4144 168.196V166.828C34.8144 166.9 34.1784 167.008 33.5064 167.152C32.8344 167.272 32.2104 167.464 31.6344 167.728C31.0584 167.992 30.5904 168.364 30.2304 168.844C29.8704 169.3 29.6904 169.924 29.6904 170.716C29.6904 171.604 29.9064 172.252 30.3384 172.66C30.7704 173.068 31.2744 173.272 31.8504 173.272ZM49.6721 175.324C48.5921 175.324 47.5241 175.216 46.4681 175C45.4361 174.76 44.5361 174.448 43.7681 174.064C43.8401 173.392 43.8761 172.732 43.8761 172.084C43.9001 171.412 43.8881 170.74 43.8401 170.068C44.1281 169.924 44.4401 169.828 44.7761 169.78C45.1361 169.732 45.4721 169.732 45.7841 169.78C45.9041 170.668 46.1081 171.4 46.3961 171.976C46.6841 172.528 47.0801 172.936 47.5841 173.2C48.1121 173.464 48.7601 173.596 49.5281 173.596C50.7281 173.596 51.5801 173.32 52.0841 172.768C52.6121 172.216 52.8761 171.472 52.8761 170.536C52.8761 169.456 52.4921 168.64 51.7241 168.088C50.9561 167.512 49.5761 167.224 47.5841 167.224C47.5121 166.96 47.4761 166.672 47.4761 166.36C47.5001 166.024 47.5601 165.748 47.6561 165.532C48.9521 165.532 49.9481 165.412 50.6441 165.172C51.3641 164.932 51.8561 164.596 52.1201 164.164C52.3841 163.708 52.5161 163.204 52.5161 162.652C52.5161 161.764 52.2521 161.092 51.7241 160.636C51.1961 160.156 50.4281 159.916 49.4201 159.916C48.4121 159.916 47.6681 160.204 47.1881 160.78C46.7081 161.332 46.3841 162.316 46.2161 163.732C45.9041 163.756 45.5801 163.756 45.2441 163.732C44.9081 163.684 44.5721 163.612 44.2361 163.516C44.3081 162.892 44.3441 162.22 44.3441 161.5C44.3441 160.78 44.3081 160.084 44.2361 159.412C44.9321 159.004 45.7481 158.704 46.6841 158.512C47.6441 158.296 48.6641 158.188 49.7441 158.188C51.7841 158.188 53.3561 158.548 54.4601 159.268C55.5641 159.988 56.1161 160.984 56.1161 162.256C56.1161 163.456 55.6121 164.416 54.6041 165.136C53.5961 165.832 52.1801 166.18 50.3561 166.18V166C52.2761 166 53.7761 166.348 54.8561 167.044C55.9361 167.74 56.4761 168.832 56.4761 170.32C56.4761 171.832 55.8881 173.044 54.7121 173.956C53.5601 174.868 51.8801 175.324 49.6721 175.324ZM70.2503 175.324C69.9863 175.204 69.7703 174.988 69.6023 174.676C69.4583 174.364 69.3863 173.872 69.3863 173.2C69.3863 172.984 69.3983 172.732 69.4223 172.444C69.4463 172.132 69.4943 171.856 69.5663 171.616H69.6383C69.5663 172 69.3983 172.42 69.1343 172.876C68.8943 173.308 68.5703 173.692 68.1623 174.028C67.7543 174.388 67.2383 174.688 66.6143 174.928C65.9903 175.144 65.2343 175.252 64.3463 175.252C62.8343 175.252 61.6823 174.916 60.8903 174.244C60.0983 173.548 59.7023 172.612 59.7023 171.436C59.7023 170.5 59.9183 169.708 60.3503 169.06C60.8063 168.388 61.3823 167.836 62.0783 167.404C62.7983 166.948 63.5663 166.588 64.3823 166.324C65.2223 166.06 66.0383 165.856 66.8303 165.712C67.6223 165.568 68.3183 165.448 68.9183 165.352C68.9183 164.368 68.8943 163.6 68.8463 163.048C68.8223 162.496 68.7503 162.064 68.6303 161.752C68.5343 161.416 68.3783 161.128 68.1623 160.888C67.8743 160.528 67.5383 160.264 67.1543 160.096C66.7943 159.904 66.3863 159.808 65.9303 159.808C65.1383 159.808 64.5143 160.06 64.0583 160.564C63.6023 161.044 63.2783 161.608 63.0863 162.256C62.8943 162.904 62.7863 163.48 62.7623 163.984C62.4983 163.984 62.1623 163.972 61.7543 163.948C61.3703 163.9 61.0823 163.828 60.8903 163.732C60.9383 163.132 60.9503 162.46 60.9263 161.716C60.9023 160.972 60.8303 160.336 60.7103 159.808C61.6943 159.304 62.7263 158.908 63.8063 158.62C64.9103 158.332 65.9183 158.188 66.8303 158.188C67.7183 158.188 68.4743 158.32 69.0983 158.584C69.7463 158.824 70.2623 159.148 70.6463 159.556C71.2703 160.156 71.6783 160.948 71.8703 161.932C72.0623 162.892 72.1583 164.176 72.1583 165.784V169.744C72.1583 170.416 72.2063 170.956 72.3023 171.364C72.4223 171.748 72.6383 172.036 72.9503 172.228C73.2623 172.396 73.7423 172.504 74.3903 172.552C74.3903 172.792 74.3783 173.068 74.3543 173.38C74.3303 173.668 74.2703 173.944 74.1743 174.208C73.5743 174.232 72.9023 174.352 72.1583 174.568C71.4383 174.76 70.8023 175.012 70.2503 175.324ZM65.3543 173.272C65.8823 173.272 66.4223 173.104 66.9743 172.768C67.5263 172.408 67.9823 171.856 68.3423 171.112C68.7263 170.368 68.9183 169.396 68.9183 168.196V166.828C68.3183 166.9 67.6823 167.008 67.0103 167.152C66.3383 167.272 65.7143 167.464 65.1383 167.728C64.5623 167.992 64.0943 168.364 63.7343 168.844C63.3743 169.3 63.1943 169.924 63.1943 170.716C63.1943 171.604 63.4103 172.252 63.8423 172.66C64.2743 173.068 64.7783 173.272 65.3543 173.272ZM84.5525 167.872L82.7885 170.464C82.0445 171.568 81.7325 172.36 81.8525 172.84C81.9965 173.32 82.4165 173.56 83.1125 173.56C83.1845 173.728 83.2325 173.956 83.2565 174.244C83.3045 174.532 83.3285 174.808 83.3285 175.072C82.6565 175.024 81.9485 175 81.2045 175C80.4605 175 79.9085 175 79.5485 175C79.2845 175 78.9005 175 78.3965 175C77.9165 175 77.3045 175.024 76.5605 175.072C76.5605 174.808 76.5725 174.544 76.5965 174.28C76.6205 173.992 76.6805 173.752 76.7765 173.56C77.2085 173.536 77.6165 173.44 78.0005 173.272C78.3845 173.08 78.7925 172.756 79.2245 172.3C79.6805 171.844 80.2085 171.196 80.8085 170.356L83.4365 166.684L84.5525 167.872ZM86.3525 171.328C86.0405 170.824 85.6925 170.296 85.3085 169.744C84.9245 169.168 84.5285 168.592 84.1205 168.016L83.5805 167.224C83.0525 166.456 82.5245 165.712 81.9965 164.992C81.4685 164.272 81.0005 163.636 80.5925 163.084C79.9205 162.172 79.3925 161.5 79.0085 161.068C78.6245 160.612 78.3005 160.312 78.0365 160.168C77.7725 160 77.4485 159.904 77.0645 159.88C76.9685 159.688 76.8965 159.472 76.8485 159.232C76.8245 158.968 76.8125 158.704 76.8125 158.44C77.3405 158.464 77.9285 158.488 78.5765 158.512C79.2245 158.512 79.8965 158.512 80.5925 158.512C81.2885 158.512 81.9965 158.512 82.7165 158.512C83.4605 158.488 84.1325 158.464 84.7325 158.44C84.7325 158.68 84.7085 158.932 84.6605 159.196C84.6365 159.46 84.6005 159.688 84.5525 159.88C83.7125 159.904 83.2205 160.096 83.0765 160.456C82.9565 160.816 83.2685 161.512 84.0125 162.544C84.2285 162.832 84.4925 163.192 84.8045 163.624C85.1405 164.056 85.5005 164.536 85.8845 165.064L86.3165 165.64C86.9405 166.48 87.5765 167.344 88.2245 168.232C88.8965 169.12 89.4605 169.912 89.9165 170.608C90.4445 171.352 90.8765 171.94 91.2125 172.372C91.5485 172.804 91.8485 173.104 92.1125 173.272C92.4005 173.44 92.7005 173.536 93.0125 173.56C93.1085 173.8 93.1565 174.04 93.1565 174.28C93.1805 174.496 93.1925 174.76 93.1925 175.072C92.4485 175.024 91.7885 175 91.2125 175C90.6365 175 90.0365 175 89.4125 175C89.1005 175 88.7765 175 88.4405 175C88.1045 175 87.7565 175 87.3965 175C87.0605 175 86.7125 175 86.3525 175C85.9925 175.024 85.6325 175.048 85.2725 175.072C85.2725 174.76 85.2725 174.484 85.2725 174.244C85.2965 174.004 85.3445 173.776 85.4165 173.56C86.2565 173.536 86.7605 173.368 86.9285 173.056C87.0965 172.72 86.9045 172.144 86.3525 171.328ZM85.0925 165.604L87.0725 162.544C87.6965 161.584 87.9845 160.912 87.9365 160.528C87.8885 160.12 87.4685 159.904 86.6765 159.88C86.5805 159.664 86.5205 159.436 86.4965 159.196C86.4725 158.932 86.4605 158.68 86.4605 158.44C86.9165 158.464 87.3845 158.488 87.8645 158.512C88.3445 158.512 88.9445 158.512 89.6645 158.512C90.3845 158.512 90.9725 158.512 91.4285 158.512C91.8845 158.488 92.3045 158.464 92.6885 158.44C92.6885 158.68 92.6645 158.932 92.6165 159.196C92.5685 159.46 92.5205 159.688 92.4725 159.88C92.1125 159.904 91.7885 159.976 91.5005 160.096C91.2125 160.216 90.9005 160.456 90.5645 160.816C90.2525 161.152 89.8445 161.668 89.3405 162.364L86.1725 166.828L85.0925 165.604ZM108.383 172.192C107.735 173.224 106.931 174.004 105.971 174.532C105.011 175.06 103.847 175.324 102.479 175.324C101.255 175.324 100.067 175.012 98.9148 174.388C97.7868 173.74 96.8508 172.792 96.1068 171.544C95.3628 170.272 94.9908 168.7 94.9908 166.828C94.9908 165.388 95.2788 164.008 95.8548 162.688C96.4308 161.368 97.2708 160.288 98.3748 159.448C99.5028 158.608 100.871 158.188 102.479 158.188C103.583 158.188 104.591 158.32 105.503 158.584C106.439 158.848 107.243 159.256 107.915 159.808C107.819 160.504 107.747 161.188 107.699 161.86C107.675 162.532 107.663 163.216 107.663 163.912C107.471 164.008 107.207 164.08 106.871 164.128C106.559 164.176 106.271 164.2 106.007 164.2C105.863 162.808 105.455 161.74 104.783 160.996C104.111 160.252 103.247 159.88 102.191 159.88C101.015 159.88 100.079 160.432 99.3828 161.536C98.6868 162.64 98.3388 164.224 98.3388 166.288C98.3388 167.488 98.5308 168.628 98.9148 169.708C99.3228 170.764 99.9108 171.628 100.679 172.3C101.447 172.948 102.383 173.272 103.487 173.272C104.255 173.272 104.975 173.092 105.647 172.732C106.343 172.372 106.955 171.856 107.483 171.184C107.675 171.28 107.855 171.424 108.023 171.616C108.191 171.784 108.311 171.976 108.383 172.192ZM114.548 175.108C114.548 174.844 114.56 174.58 114.584 174.316C114.608 174.028 114.656 173.776 114.728 173.56C115.376 173.536 115.868 173.464 116.204 173.344C116.564 173.2 116.804 172.972 116.924 172.66C117.068 172.324 117.14 171.844 117.14 171.22V159.232H120.38V171.22C120.38 171.844 120.44 172.324 120.56 172.66C120.68 172.972 120.908 173.2 121.244 173.344C121.604 173.464 122.108 173.536 122.756 173.56C122.804 173.752 122.84 173.992 122.864 174.28C122.888 174.568 122.9 174.844 122.9 175.108C122.3 175.06 121.64 175.024 120.92 175C120.224 175 119.528 175 118.832 175C118.352 175 117.848 175 117.32 175C116.792 175.024 116.288 175.036 115.808 175.036C115.328 175.06 114.908 175.084 114.548 175.108ZM111.956 163.408C111.596 163.408 111.284 163.384 111.02 163.336C110.78 163.264 110.504 163.144 110.192 162.976C110.36 162.112 110.48 161.296 110.552 160.528C110.648 159.736 110.696 159.04 110.696 158.44C111.176 158.464 111.704 158.488 112.28 158.512C112.88 158.512 113.516 158.512 114.188 158.512C114.884 158.512 115.616 158.512 116.384 158.512C117.176 158.512 118.004 158.512 118.868 158.512C119.996 158.512 121.064 158.512 122.072 158.512C123.08 158.488 124.016 158.476 124.88 158.476C125.744 158.452 126.476 158.44 127.076 158.44C127.052 159.04 127.064 159.712 127.112 160.456C127.16 161.176 127.232 162.016 127.328 162.976C127.064 163.144 126.776 163.264 126.464 163.336C126.176 163.384 125.864 163.408 125.528 163.408C125.432 162.208 125.156 161.356 124.7 160.852C124.244 160.324 123.464 160.06 122.36 160.06H115.448C114.56 160.06 113.888 160.18 113.432 160.42C113 160.66 112.688 161.032 112.496 161.536C112.304 162.016 112.124 162.64 111.956 163.408ZM140.211 175.324C139.947 175.204 139.731 174.988 139.563 174.676C139.419 174.364 139.347 173.872 139.347 173.2C139.347 172.984 139.359 172.732 139.383 172.444C139.407 172.132 139.455 171.856 139.527 171.616H139.599C139.527 172 139.359 172.42 139.095 172.876C138.855 173.308 138.531 173.692 138.123 174.028C137.715 174.388 137.199 174.688 136.575 174.928C135.951 175.144 135.195 175.252 134.307 175.252C132.795 175.252 131.643 174.916 130.851 174.244C130.059 173.548 129.663 172.612 129.663 171.436C129.663 170.5 129.879 169.708 130.311 169.06C130.767 168.388 131.343 167.836 132.039 167.404C132.759 166.948 133.527 166.588 134.343 166.324C135.183 166.06 135.999 165.856 136.791 165.712C137.583 165.568 138.279 165.448 138.879 165.352C138.879 164.368 138.855 163.6 138.807 163.048C138.783 162.496 138.711 162.064 138.591 161.752C138.495 161.416 138.339 161.128 138.123 160.888C137.835 160.528 137.499 160.264 137.115 160.096C136.755 159.904 136.347 159.808 135.891 159.808C135.099 159.808 134.475 160.06 134.019 160.564C133.563 161.044 133.239 161.608 133.047 162.256C132.855 162.904 132.747 163.48 132.723 163.984C132.459 163.984 132.123 163.972 131.715 163.948C131.331 163.9 131.043 163.828 130.851 163.732C130.899 163.132 130.911 162.46 130.887 161.716C130.863 160.972 130.791 160.336 130.671 159.808C131.655 159.304 132.687 158.908 133.767 158.62C134.871 158.332 135.879 158.188 136.791 158.188C137.679 158.188 138.435 158.32 139.059 158.584C139.707 158.824 140.223 159.148 140.607 159.556C141.231 160.156 141.639 160.948 141.831 161.932C142.023 162.892 142.119 164.176 142.119 165.784V169.744C142.119 170.416 142.167 170.956 142.263 171.364C142.383 171.748 142.599 172.036 142.911 172.228C143.223 172.396 143.703 172.504 144.351 172.552C144.351 172.792 144.339 173.068 144.315 173.38C144.291 173.668 144.231 173.944 144.135 174.208C143.535 174.232 142.863 174.352 142.119 174.568C141.399 174.76 140.763 175.012 140.211 175.324ZM135.315 173.272C135.843 173.272 136.383 173.104 136.935 172.768C137.487 172.408 137.943 171.856 138.303 171.112C138.687 170.368 138.879 169.396 138.879 168.196V166.828C138.279 166.9 137.643 167.008 136.971 167.152C136.299 167.272 135.675 167.464 135.099 167.728C134.523 167.992 134.055 168.364 133.695 168.844C133.335 169.3 133.155 169.924 133.155 170.716C133.155 171.604 133.371 172.252 133.803 172.66C134.235 173.068 134.739 173.272 135.315 173.272ZM158.213 175.108C158.213 174.772 158.225 174.484 158.249 174.244C158.273 174.004 158.321 173.776 158.393 173.56C159.161 173.56 159.737 173.356 160.121 172.948C160.505 172.516 160.697 171.676 160.697 170.428V163.084C160.697 161.836 160.505 161.008 160.121 160.6C159.737 160.168 159.161 159.952 158.393 159.952C158.321 159.736 158.273 159.508 158.249 159.268C158.225 159.004 158.213 158.716 158.213 158.404C158.765 158.428 159.389 158.452 160.085 158.476C160.805 158.5 161.549 158.512 162.317 158.512C163.085 158.512 163.829 158.5 164.549 158.476C165.269 158.452 165.893 158.428 166.421 158.404C166.421 158.716 166.409 159.004 166.385 159.268C166.361 159.508 166.313 159.736 166.241 159.952C165.473 159.952 164.897 160.168 164.513 160.6C164.129 161.008 163.937 161.836 163.937 163.084V170.428C163.937 171.676 164.129 172.516 164.513 172.948C164.897 173.356 165.473 173.56 166.241 173.56C166.313 173.776 166.361 174.004 166.385 174.244C166.409 174.484 166.421 174.772 166.421 175.108C165.893 175.06 165.269 175.024 164.549 175C163.829 175 163.085 175 162.317 175C161.549 175 160.805 175 160.085 175C159.389 175.024 158.765 175.06 158.213 175.108ZM147.089 175.108C147.089 174.772 147.101 174.484 147.125 174.244C147.149 174.004 147.197 173.776 147.269 173.56C148.037 173.56 148.613 173.356 148.997 172.948C149.381 172.516 149.573 171.676 149.573 170.428V163.084C149.573 161.836 149.381 161.008 148.997 160.6C148.613 160.168 148.037 159.952 147.269 159.952C147.197 159.736 147.149 159.508 147.125 159.268C147.101 159.004 147.089 158.716 147.089 158.404C147.641 158.428 148.265 158.452 148.961 158.476C149.681 158.5 150.425 158.512 151.193 158.512C151.961 158.512 152.705 158.5 153.425 158.476C154.145 158.452 154.769 158.428 155.297 158.404C155.297 158.716 155.285 159.004 155.261 159.268C155.237 159.508 155.189 159.736 155.117 159.952C154.349 159.952 153.773 160.168 153.389 160.6C153.005 161.008 152.813 161.836 152.813 163.084V170.428C152.813 171.676 153.005 172.516 153.389 172.948C153.773 173.356 154.349 173.56 155.117 173.56C155.189 173.776 155.237 174.004 155.261 174.244C155.285 174.484 155.297 174.772 155.297 175.108C154.769 175.06 154.145 175.024 153.425 175C152.705 175 151.961 175 151.193 175C150.425 175 149.681 175 148.961 175C148.265 175.024 147.641 175.06 147.089 175.108ZM152.633 167.548V165.856H160.841V167.368C160.145 167.368 159.281 167.38 158.249 167.404C157.241 167.404 156.221 167.416 155.189 167.44C154.181 167.464 153.329 167.5 152.633 167.548Z" fill="#5D3030"/>
</svg>
