<svg width="165" height="184" viewBox="0 0 165 184" fill="none" xmlns="http://www.w3.org/2000/svg">
<path d="M120.726 102.399H43.9668V135.151H120.726V102.399Z" fill="white" stroke="black" stroke-miterlimit="10"/>
<path d="M82.5486 134.438C85.7516 134.421 88.9384 134.387 92.1414 134.336C92.4973 134.336 92.8694 134.302 93.2414 134.285C93.3547 133.538 93.4194 132.774 93.4194 131.993C93.4194 124.692 88.4693 118.784 82.3545 118.784C76.2396 118.784 71.2896 124.692 71.2896 131.993C71.2896 132.842 71.3704 133.674 71.4837 134.472C75.172 134.455 78.8603 134.455 82.5486 134.438Z" fill="white" stroke="black" stroke-miterlimit="10"/>
<path d="M58.9953 134.319C60.2895 134.302 61.5674 134.285 62.8616 134.234C63.0071 134.234 63.1527 134.217 63.2983 134.2C63.3469 133.674 63.363 133.131 63.363 132.57C63.363 127.375 61.3733 123.181 58.9144 123.181C56.4556 123.181 54.4658 127.392 54.4658 132.57C54.4658 133.182 54.4982 133.759 54.5467 134.336C56.0188 134.353 57.5071 134.353 58.9953 134.319Z" fill="white" stroke="black" stroke-miterlimit="10"/>
<path d="M105.325 135.134C106.62 135.117 107.898 135.1 109.192 135.049C109.337 135.049 109.483 135.032 109.628 135.015C109.677 134.455 109.693 133.861 109.693 133.267C109.693 127.698 107.703 123.198 105.245 123.198C102.786 123.198 100.796 127.715 100.796 133.267C100.796 133.912 100.828 134.54 100.877 135.151C102.365 135.151 103.853 135.151 105.325 135.134Z" fill="white" stroke="black" stroke-miterlimit="10"/>
<path d="M145.217 92.9416C138.439 91.3286 132.017 88.1366 126.403 83.841C124.964 82.7373 123.589 81.5318 122.327 80.2245C121.518 79.3925 121.324 79.4774 121.324 78.3568C121.324 76.8627 121.324 75.3516 121.324 73.8574C121.324 73.5179 121.049 73.2122 120.709 73.2122C120.111 73.2122 119.512 73.2122 118.914 73.2122C118.606 73.2122 118.137 73.2802 117.83 73.2122C117.652 73.2122 117.49 73.2122 117.312 73.2122C117.069 73.2632 117.086 73.1443 117.328 72.8897C117.037 72.2784 116.244 72.635 116.196 73.2122C116.18 73.433 116.164 73.6367 116.147 73.8574C116.358 73.6367 116.552 73.433 116.762 73.2122C96.7191 73.2122 76.6761 73.2122 56.6331 73.2122C53.8022 73.2122 50.9874 73.2122 48.1565 73.2122C48.3668 73.433 48.5609 73.6367 48.7712 73.8574C48.755 73.6367 48.7389 73.433 48.7227 73.2122C48.6742 72.635 47.8815 72.2784 47.5903 72.8897C47.8491 73.1443 47.8491 73.2632 47.6227 73.2122C47.4609 73.2122 47.2991 73.2122 47.1374 73.2122C46.7653 73.2971 46.2638 73.2122 45.8756 73.2122C45.2285 73.2122 44.5814 73.2122 43.9344 73.2122C43.6108 73.2122 43.3197 73.5009 43.3197 73.8574C43.3197 74.7573 43.3197 75.6742 43.3197 76.574C43.3197 77.3211 43.627 78.985 43.3197 79.6642C43.077 80.2075 41.4755 81.3451 40.974 81.8035C39.9387 82.7373 38.8549 83.6202 37.7387 84.4352C35.7975 85.8614 33.7592 87.1518 31.6562 88.3064C22.6134 93.2812 12.1147 95.4714 2.13362 92.5681C1.47038 92.3813 1.06596 93.3661 1.6645 93.7396C9.34846 98.2899 18.3427 98.5106 26.9488 98.3748C33.1768 98.2729 39.4211 97.8145 45.6491 97.7636C52.136 97.7126 58.6229 97.7636 65.1097 97.7636C82.7748 97.7636 100.456 97.7636 118.121 97.7636C123.492 97.7636 128.846 98.188 134.217 98.3069C143.988 98.5106 154.438 98.9521 163.238 93.7396C163.837 93.383 163.432 92.3813 162.769 92.5681C157.042 94.232 151.073 94.232 145.217 92.9416C144.457 92.7718 144.133 93.9943 144.894 94.1641C150.944 95.5054 157.139 95.5224 163.125 93.7905C162.963 93.4 162.817 93.0095 162.656 92.619C154.519 97.441 144.894 97.2202 135.835 97.0505C130.221 96.9316 124.608 96.4732 118.995 96.4732C112.475 96.4732 105.972 96.4732 99.453 96.4732C81.9983 96.4732 64.5436 96.4732 47.0888 96.4732C42.4299 96.4732 37.7548 96.8467 33.0959 96.9656C22.8561 97.2202 11.5647 98.1031 2.31157 92.619C2.1498 93.0095 2.00421 93.4 1.84244 93.7905C12.1632 96.7788 22.9855 94.5206 32.3195 89.393C34.6327 88.1196 36.8651 86.6934 38.9843 85.0974C39.9872 84.3333 40.9578 83.5353 41.8961 82.7034C42.6564 82.0073 44.0961 81.0055 44.5167 80.0377C44.8241 79.3246 44.5976 78.1531 44.5976 77.406C44.5976 76.2175 44.5976 75.046 44.5976 73.8574C44.3873 74.0782 44.1932 74.2819 43.9829 74.5026C45.277 74.5026 46.555 74.5026 47.8491 74.5026C48.0594 74.5026 48.2859 74.3838 48.3668 74.18C48.4639 73.9593 48.5771 73.7556 48.6742 73.5348C48.3021 73.433 47.9139 73.3141 47.5418 73.2122C47.558 73.433 47.5741 73.6367 47.5903 73.8574C47.6227 74.197 47.8491 74.5026 48.205 74.5026C68.248 74.5026 88.291 74.5026 108.334 74.5026C111.165 74.5026 113.98 74.5026 116.811 74.5026C117.167 74.5026 117.393 74.214 117.425 73.8574C117.442 73.6367 117.458 73.433 117.474 73.2122C117.102 73.3141 116.714 73.433 116.342 73.5348C116.439 73.7556 116.552 73.9593 116.649 74.18C116.746 74.3838 116.972 74.5026 117.167 74.5026C118.364 74.5026 119.545 74.5026 120.742 74.5026C120.531 74.2819 120.337 74.0782 120.127 73.8574C120.127 75.5044 120.046 77.1683 120.127 78.8152C120.24 81.0225 123.362 82.992 124.915 84.2315C130.787 88.9686 137.695 92.4492 144.91 94.1641C145.654 94.3508 145.977 93.1114 145.217 92.9416Z" fill="black"/>
<path d="M82.3544 1.01855L106.215 17.6578H58.4937L82.3544 1.01855Z" fill="white" stroke="black" stroke-miterlimit="10"/>
<path d="M117.005 33.7199C113.527 32.9389 110.243 31.5466 107.234 29.5601C106.248 28.9149 104.323 27.8792 104.048 26.8095C103.87 26.1473 104.048 25.1965 104.048 24.4834C104.048 24.1439 103.772 23.8382 103.433 23.8382C103.109 23.8382 102.77 23.8382 102.446 23.8382C102.22 23.8382 101.993 23.8382 101.767 23.8382C101.459 23.8382 101.475 23.8382 101.815 23.8382C101.508 23.244 100.731 23.5666 100.683 24.1608C100.667 24.2627 100.667 24.3816 100.65 24.4834C100.861 24.2627 101.055 24.059 101.265 23.8382C90.2164 23.8382 79.1676 23.8382 68.1189 23.8382C66.5659 23.8382 64.9968 23.8382 63.4438 23.8382C63.6541 24.059 63.8483 24.2627 64.0586 24.4834C64.0424 24.3816 64.0424 24.2627 64.0262 24.1608C63.9777 23.5666 63.2174 23.244 62.8938 23.8382C63.2335 23.8382 63.2497 23.8382 62.91 23.8382C62.6674 23.8382 62.4247 23.8382 62.1821 23.8382C61.8262 23.8382 61.4703 23.8382 61.1144 23.8382C60.7908 23.8382 60.4997 24.1269 60.4997 24.4834C60.4997 25.3663 60.6938 26.7246 60.3541 27.3868C59.9335 28.2018 58.2187 29.0677 57.4261 29.5771C56.3746 30.2732 55.2746 30.9014 54.1422 31.4617C49.1598 33.9406 43.5302 34.9084 38.1272 33.5331C37.4801 33.3633 37.0272 34.3651 37.6581 34.7047C45.0023 38.5588 54.0775 36.8949 61.9718 36.7591C65.5145 36.6912 69.0734 36.7591 72.6161 36.7591C82.4192 36.7591 92.2385 36.7591 102.042 36.7591C110.178 36.7591 119.415 38.6777 127.002 34.7047C127.633 34.3821 127.18 33.3803 126.533 33.5331C123.379 34.3311 120.208 34.3311 117.005 33.7199C116.245 33.5671 115.921 34.8065 116.682 34.9424C120.095 35.6045 123.492 35.6215 126.873 34.7556C126.711 34.3651 126.566 33.9746 126.404 33.5841C119.205 37.3533 110.146 35.5366 102.414 35.4687C98.8386 35.4347 95.2635 35.4687 91.6885 35.4687C82.0956 35.4687 72.5028 35.4687 62.8938 35.4687C54.951 35.4687 45.6656 37.4552 38.2728 33.5841C38.111 33.9746 37.9654 34.3651 37.8037 34.7556C43.5464 36.2158 49.4671 35.1801 54.7569 32.5483C56.0834 31.8862 57.3776 31.1391 58.5908 30.2902C59.4158 29.7129 61.0011 28.796 61.5188 27.8452C61.9879 26.9623 61.6967 25.4512 61.6967 24.4664C61.4865 24.6872 61.2923 24.8909 61.082 25.1116C61.7938 25.1116 62.5056 25.1116 63.2174 25.1116C63.4277 25.1116 63.638 24.9928 63.735 24.789C63.7835 24.6872 63.8483 24.5683 63.8968 24.4664C63.5247 24.3646 63.1365 24.2457 62.7644 24.1439C62.7806 24.2457 62.7806 24.3646 62.7968 24.4664C62.8291 24.806 63.0556 25.1116 63.4115 25.1116C74.4602 25.1116 85.5089 25.1116 96.5577 25.1116C98.1106 25.1116 99.6798 25.1116 101.233 25.1116C101.589 25.1116 101.815 24.823 101.847 24.4664C101.864 24.3646 101.864 24.2457 101.88 24.1439C101.508 24.2457 101.12 24.3646 100.747 24.4664C100.796 24.5683 100.861 24.6872 100.909 24.789C101.006 24.9758 101.217 25.1116 101.427 25.1116C102.09 25.1116 102.737 25.1116 103.4 25.1116C103.19 24.8909 102.996 24.6872 102.786 24.4664C102.786 25.2984 102.608 26.3511 102.786 27.1491C103.045 28.2697 104.549 29.1696 105.423 29.8317C108.755 32.3276 112.654 34.0425 116.633 34.9424C117.442 35.1121 117.765 33.8897 117.005 33.7199Z" fill="black"/>
<path d="M114.174 44.9429H50.8096V69.1376H114.174V44.9429Z" stroke="black" stroke-miterlimit="10"/>
<path d="M82.6941 69.1037C85.8971 69.0867 89.0839 69.0527 92.2869 69.0018C92.6428 69.0018 93.0149 68.9678 93.3869 68.9508C93.5002 68.2038 93.5649 67.4397 93.5649 66.6587C93.5649 59.3578 88.6148 53.4492 82.5 53.4492C76.3851 53.4492 71.4351 59.3578 71.4351 66.6587C71.4351 67.5076 71.5159 68.3396 71.6292 69.1376C75.3175 69.1376 79.0058 69.1206 82.6941 69.1037Z" fill="white" stroke="black" stroke-miterlimit="10"/>
<path d="M42.7861 72.8048L121.163 72.6011" stroke="white" stroke-miterlimit="10"/>
<path d="M90.5234 72.0749V71.5825" stroke="white" stroke-miterlimit="10"/>
<path d="M59.9009 23.5156H104.743" stroke="white" stroke-miterlimit="10"/>
<path d="M48.972 175.324C48.276 174.796 47.652 174.04 47.1 173.056C46.572 172.072 46.032 171.016 45.48 169.888C44.952 168.736 44.352 167.656 43.68 166.648C43.032 165.616 42.252 164.776 41.34 164.128C40.452 163.456 39.36 163.12 38.064 163.12V161.464C38.976 161.464 39.732 161.308 40.332 160.996C40.956 160.66 41.544 160.132 42.096 159.412C42.648 158.668 43.284 157.696 44.004 156.496C44.748 155.296 45.372 154.312 45.876 153.544C46.38 152.752 46.836 152.128 47.244 151.672C47.676 151.216 48.12 150.904 48.576 150.736C49.056 150.544 49.632 150.448 50.304 150.448C50.592 150.448 50.94 150.472 51.348 150.52C51.756 150.544 52.092 150.592 52.356 150.664C52.332 151.216 52.308 151.78 52.284 152.356C52.284 152.932 52.296 153.52 52.32 154.12C52.368 154.72 52.416 155.32 52.464 155.92C52.2 156.016 51.888 156.1 51.528 156.172C51.192 156.22 50.928 156.244 50.736 156.244C50.568 155.26 50.352 154.576 50.088 154.192C49.824 153.784 49.5 153.58 49.116 153.58C48.492 153.58 47.952 153.904 47.496 154.552C47.064 155.176 46.5 156.064 45.804 157.216C45.084 158.44 44.472 159.388 43.968 160.06C43.488 160.732 43.032 161.224 42.6 161.536C42.192 161.824 41.736 162.064 41.232 162.256L41.124 161.716C41.892 161.74 42.564 161.836 43.14 162.004C43.74 162.172 44.292 162.448 44.796 162.832C45.3 163.216 45.792 163.756 46.272 164.452C46.776 165.124 47.316 166 47.892 167.08C48.636 168.52 49.248 169.66 49.728 170.5C50.232 171.316 50.664 171.928 51.024 172.336C51.408 172.744 51.792 173.02 52.176 173.164C52.584 173.284 53.064 173.368 53.616 173.416C53.616 173.536 53.604 173.692 53.58 173.884C53.58 174.076 53.568 174.268 53.544 174.46C53.52 174.652 53.484 174.832 53.436 175C52.788 175 52.236 175 51.78 175C51.324 175.024 50.88 175.06 50.448 175.108C50.04 175.156 49.548 175.228 48.972 175.324ZM32.016 175.108C32.016 174.772 32.028 174.484 32.052 174.244C32.076 173.98 32.124 173.752 32.196 173.56C32.844 173.512 33.348 173.404 33.708 173.236C34.068 173.044 34.32 172.732 34.464 172.3C34.608 171.844 34.68 171.22 34.68 170.428V155.236C34.68 154.42 34.608 153.796 34.464 153.364C34.32 152.932 34.068 152.62 33.708 152.428C33.348 152.236 32.844 152.128 32.196 152.104C32.124 151.912 32.076 151.684 32.052 151.42C32.028 151.156 32.016 150.868 32.016 150.556C32.472 150.58 32.928 150.604 33.384 150.628C33.864 150.628 34.356 150.64 34.86 150.664C35.364 150.664 35.868 150.664 36.372 150.664C36.9 150.664 37.404 150.664 37.884 150.664C38.364 150.64 38.832 150.628 39.288 150.628C39.768 150.604 40.248 150.58 40.728 150.556C40.728 150.868 40.716 151.156 40.692 151.42C40.668 151.684 40.62 151.912 40.548 152.104C39.924 152.128 39.42 152.236 39.036 152.428C38.676 152.62 38.424 152.932 38.28 153.364C38.136 153.796 38.064 154.42 38.064 155.236V170.428C38.064 171.22 38.136 171.844 38.28 172.3C38.424 172.732 38.676 173.044 39.036 173.236C39.42 173.404 39.924 173.512 40.548 173.56C40.62 173.752 40.668 173.98 40.692 174.244C40.716 174.484 40.728 174.772 40.728 175.108C40.008 175.06 39.276 175.024 38.532 175C37.788 175 37.068 175 36.372 175C35.676 175 34.932 175 34.14 175C33.348 175.024 32.64 175.06 32.016 175.108ZM67.1784 175.108C67.1784 174.772 67.1904 174.484 67.2144 174.244C67.2384 174.004 67.2864 173.776 67.3584 173.56C68.0784 173.56 68.6064 173.356 68.9424 172.948C69.3024 172.516 69.4824 171.676 69.4824 170.428V163.084C69.4824 161.836 69.3024 161.008 68.9424 160.6C68.6064 160.168 68.0784 159.952 67.3584 159.952C67.2864 159.736 67.2384 159.508 67.2144 159.268C67.1904 159.004 67.1784 158.716 67.1784 158.404C67.7064 158.428 68.3064 158.452 68.9784 158.476C69.6504 158.5 70.3584 158.512 71.1024 158.512C71.8464 158.512 72.5544 158.5 73.2264 158.476C73.8984 158.452 74.4984 158.428 75.0264 158.404C75.0264 158.716 75.0144 159.004 74.9904 159.268C74.9664 159.508 74.9184 159.736 74.8464 159.952C74.1264 159.952 73.5864 160.168 73.2264 160.6C72.8904 161.008 72.7224 161.836 72.7224 163.084V170.428C72.7224 171.676 72.8904 172.516 73.2264 172.948C73.5864 173.356 74.1264 173.56 74.8464 173.56C74.9184 173.776 74.9664 174.004 74.9904 174.244C75.0144 174.484 75.0264 174.772 75.0264 175.108C74.4984 175.06 73.8984 175.024 73.2264 175C72.5544 175 71.8464 175 71.1024 175C70.3584 175 69.6504 175 68.9784 175C68.3064 175.024 67.7064 175.06 67.1784 175.108ZM55.6944 175.108C55.6944 174.772 55.7064 174.484 55.7304 174.244C55.7544 174.004 55.8024 173.776 55.8744 173.56C56.5944 173.56 57.1224 173.356 57.4584 172.948C57.8184 172.516 57.9984 171.676 57.9984 170.428V163.084C57.9984 161.836 57.8184 161.008 57.4584 160.6C57.1224 160.168 56.5944 159.952 55.8744 159.952C55.8024 159.736 55.7544 159.508 55.7304 159.268C55.7064 159.004 55.6944 158.716 55.6944 158.404C56.2224 158.428 56.8224 158.452 57.4944 158.476C58.1664 158.5 58.8744 158.512 59.6184 158.512C60.3624 158.512 61.0704 158.5 61.7424 158.476C62.4144 158.452 63.0144 158.428 63.5424 158.404C63.5424 158.716 63.5304 159.004 63.5064 159.268C63.4824 159.508 63.4344 159.736 63.3624 159.952C62.6424 159.952 62.1024 160.168 61.7424 160.6C61.4064 161.008 61.2384 161.836 61.2384 163.084V170.428C61.2384 171.676 61.4064 172.516 61.7424 172.948C62.1024 173.356 62.6424 173.56 63.3624 173.56C63.4344 173.776 63.4824 174.004 63.5064 174.244C63.5304 174.484 63.5424 174.772 63.5424 175.108C63.0144 175.06 62.4144 175.024 61.7424 175C61.0704 175 60.3624 175 59.6184 175C58.8744 175 58.1664 175 57.4944 175C56.8224 175.024 56.2224 175.06 55.6944 175.108ZM60.5904 172.228V170.068L70.2384 161.176V163.3L60.5904 172.228ZM80.8804 175.108C80.8804 174.844 80.8924 174.58 80.9164 174.316C80.9404 174.028 80.9884 173.776 81.0604 173.56C81.7084 173.536 82.2004 173.464 82.5364 173.344C82.8964 173.2 83.1364 172.972 83.2564 172.66C83.4004 172.324 83.4724 171.844 83.4724 171.22V159.232H86.7124V171.22C86.7124 171.844 86.7724 172.324 86.8924 172.66C87.0124 172.972 87.2404 173.2 87.5764 173.344C87.9364 173.464 88.4404 173.536 89.0884 173.56C89.1364 173.752 89.1724 173.992 89.1964 174.28C89.2204 174.568 89.2324 174.844 89.2324 175.108C88.6324 175.06 87.9724 175.024 87.2524 175C86.5564 175 85.8604 175 85.1644 175C84.6844 175 84.1804 175 83.6524 175C83.1244 175.024 82.6204 175.036 82.1404 175.036C81.6604 175.06 81.2404 175.084 80.8804 175.108ZM78.2884 163.408C77.9284 163.408 77.6164 163.384 77.3524 163.336C77.1124 163.264 76.8364 163.144 76.5244 162.976C76.6924 162.112 76.8124 161.296 76.8844 160.528C76.9804 159.736 77.0284 159.04 77.0284 158.44C77.5084 158.464 78.0364 158.488 78.6124 158.512C79.2124 158.512 79.8484 158.512 80.5204 158.512C81.2164 158.512 81.9484 158.512 82.7164 158.512C83.5084 158.512 84.3364 158.512 85.2004 158.512C86.3284 158.512 87.3964 158.512 88.4044 158.512C89.4124 158.488 90.3484 158.476 91.2124 158.476C92.0764 158.452 92.8084 158.44 93.4084 158.44C93.3844 159.04 93.3964 159.712 93.4444 160.456C93.4924 161.176 93.5644 162.016 93.6604 162.976C93.3964 163.144 93.1084 163.264 92.7964 163.336C92.5084 163.384 92.1964 163.408 91.8604 163.408C91.7644 162.208 91.4884 161.356 91.0324 160.852C90.5764 160.324 89.7964 160.06 88.6924 160.06H81.7804C80.8924 160.06 80.2204 160.18 79.7644 160.42C79.3324 160.66 79.0204 161.032 78.8284 161.536C78.6364 162.016 78.4564 162.64 78.2884 163.408ZM106.543 175.324C106.279 175.204 106.063 174.988 105.895 174.676C105.751 174.364 105.679 173.872 105.679 173.2C105.679 172.984 105.691 172.732 105.715 172.444C105.739 172.132 105.787 171.856 105.859 171.616H105.931C105.859 172 105.691 172.42 105.427 172.876C105.187 173.308 104.863 173.692 104.455 174.028C104.047 174.388 103.531 174.688 102.907 174.928C102.283 175.144 101.527 175.252 100.639 175.252C99.1273 175.252 97.9753 174.916 97.1833 174.244C96.3913 173.548 95.9953 172.612 95.9953 171.436C95.9953 170.5 96.2113 169.708 96.6433 169.06C97.0993 168.388 97.6753 167.836 98.3713 167.404C99.0913 166.948 99.8593 166.588 100.675 166.324C101.515 166.06 102.331 165.856 103.123 165.712C103.915 165.568 104.611 165.448 105.211 165.352C105.211 164.368 105.187 163.6 105.139 163.048C105.115 162.496 105.043 162.064 104.923 161.752C104.827 161.416 104.671 161.128 104.455 160.888C104.167 160.528 103.831 160.264 103.447 160.096C103.087 159.904 102.679 159.808 102.223 159.808C101.431 159.808 100.807 160.06 100.351 160.564C99.8953 161.044 99.5713 161.608 99.3793 162.256C99.1873 162.904 99.0793 163.48 99.0553 163.984C98.7913 163.984 98.4553 163.972 98.0473 163.948C97.6633 163.9 97.3753 163.828 97.1833 163.732C97.2313 163.132 97.2433 162.46 97.2193 161.716C97.1953 160.972 97.1233 160.336 97.0033 159.808C97.9873 159.304 99.0193 158.908 100.099 158.62C101.203 158.332 102.211 158.188 103.123 158.188C104.011 158.188 104.767 158.32 105.391 158.584C106.039 158.824 106.555 159.148 106.939 159.556C107.563 160.156 107.971 160.948 108.163 161.932C108.355 162.892 108.451 164.176 108.451 165.784V169.744C108.451 170.416 108.499 170.956 108.595 171.364C108.715 171.748 108.931 172.036 109.243 172.228C109.555 172.396 110.035 172.504 110.683 172.552C110.683 172.792 110.671 173.068 110.647 173.38C110.623 173.668 110.563 173.944 110.467 174.208C109.867 174.232 109.195 174.352 108.451 174.568C107.731 174.76 107.095 175.012 106.543 175.324ZM101.647 173.272C102.175 173.272 102.715 173.104 103.267 172.768C103.819 172.408 104.275 171.856 104.635 171.112C105.019 170.368 105.211 169.396 105.211 168.196V166.828C104.611 166.9 103.975 167.008 103.303 167.152C102.631 167.272 102.007 167.464 101.431 167.728C100.855 167.992 100.387 168.364 100.027 168.844C99.6673 169.3 99.4873 169.924 99.4873 170.716C99.4873 171.604 99.7033 172.252 100.135 172.66C100.567 173.068 101.071 173.272 101.647 173.272ZM124.905 175.108C124.905 174.772 124.917 174.484 124.941 174.244C124.965 174.004 125.013 173.776 125.085 173.56C125.805 173.56 126.333 173.356 126.669 172.948C127.029 172.516 127.209 171.676 127.209 170.428V163.084C127.209 161.836 127.029 161.008 126.669 160.6C126.333 160.168 125.805 159.952 125.085 159.952C125.013 159.736 124.965 159.508 124.941 159.268C124.917 159.004 124.905 158.716 124.905 158.404C125.433 158.428 126.033 158.452 126.705 158.476C127.377 158.5 128.085 158.512 128.829 158.512C129.573 158.512 130.281 158.5 130.953 158.476C131.625 158.452 132.225 158.428 132.753 158.404C132.753 158.716 132.741 159.004 132.717 159.268C132.693 159.508 132.645 159.736 132.573 159.952C131.853 159.952 131.313 160.168 130.953 160.6C130.617 161.008 130.449 161.836 130.449 163.084V170.428C130.449 171.676 130.617 172.516 130.953 172.948C131.313 173.356 131.853 173.56 132.573 173.56C132.645 173.776 132.693 174.004 132.717 174.244C132.741 174.484 132.753 174.772 132.753 175.108C132.225 175.06 131.625 175.024 130.953 175C130.281 175 129.573 175 128.829 175C128.085 175 127.377 175 126.705 175C126.033 175.024 125.433 175.06 124.905 175.108ZM113.421 175.108C113.421 174.772 113.433 174.484 113.457 174.244C113.481 174.004 113.529 173.776 113.601 173.56C114.321 173.56 114.849 173.356 115.185 172.948C115.545 172.516 115.725 171.676 115.725 170.428V163.084C115.725 161.836 115.545 161.008 115.185 160.6C114.849 160.168 114.321 159.952 113.601 159.952C113.529 159.736 113.481 159.508 113.457 159.268C113.433 159.004 113.421 158.716 113.421 158.404C113.949 158.428 114.549 158.452 115.221 158.476C115.893 158.5 116.601 158.512 117.345 158.512C118.089 158.512 118.797 158.5 119.469 158.476C120.141 158.452 120.741 158.428 121.269 158.404C121.269 158.716 121.257 159.004 121.233 159.268C121.209 159.508 121.161 159.736 121.089 159.952C120.369 159.952 119.829 160.168 119.469 160.6C119.133 161.008 118.965 161.836 118.965 163.084V170.428C118.965 171.676 119.133 172.516 119.469 172.948C119.829 173.356 120.369 173.56 121.089 173.56C121.161 173.776 121.209 174.004 121.233 174.244C121.257 174.484 121.269 174.772 121.269 175.108C120.741 175.06 120.141 175.024 119.469 175C118.797 175 118.089 175 117.345 175C116.601 175 115.893 175 115.221 175C114.549 175.024 113.949 175.06 113.421 175.108ZM118.317 172.228V170.068L127.965 161.176V163.3L118.317 172.228ZM122.925 156.028C121.677 156.028 120.549 155.824 119.541 155.416C118.533 155.008 117.729 154.408 117.129 153.616C116.553 152.824 116.265 151.84 116.265 150.664C116.745 150.472 117.249 150.328 117.777 150.232C118.329 150.136 118.905 150.112 119.505 150.16C119.697 151.672 120.093 152.8 120.693 153.544C121.317 154.264 122.181 154.624 123.285 154.624C124.365 154.624 125.181 154.264 125.733 153.544C126.285 152.8 126.609 151.672 126.705 150.16C127.305 150.112 127.881 150.112 128.433 150.16C129.009 150.208 129.513 150.316 129.945 150.484C129.945 151.684 129.621 152.704 128.973 153.544C128.349 154.36 127.509 154.984 126.453 155.416C125.397 155.824 124.221 156.028 122.925 156.028Z" fill="#5D3030"/>
</svg>
