<svg width="117" height="184" viewBox="0 0 117 184" fill="none" xmlns="http://www.w3.org/2000/svg">
<g clip-path="url(#clip0_34_742)">
<path d="M108.589 90.3678C108.589 115.552 85.275 135.854 56.8789 135.067C37.1347 134.5 20.0132 123.508 12.4907 108.017C14.5307 110.139 17.5543 111.492 20.9422 111.492C27.0986 111.492 32.0711 107.048 32.0711 101.561C32.0711 98.5981 30.6322 95.9644 28.3372 94.1355C28.7561 92.8003 28.665 91.3006 27.9182 89.9472L19.8129 74.895C18.5379 72.554 15.7693 71.2737 13.0189 71.5846C15.7693 66.2624 19.6672 61.5254 24.4211 57.5932C28.4464 54.2646 29.5211 49.0521 27.1168 44.6626C24.3847 39.6147 23.1461 33.7987 23.9657 27.6718C25.7872 13.7901 38.3732 2.67015 53.9282 1.11555C74.4922 -0.914576 91.8868 13.406 91.8868 31.3479C91.8868 35.8288 90.794 40.0903 88.845 43.931C86.5318 48.4485 87.7522 53.7159 91.905 57.0445C102.141 65.2382 108.589 77.1263 108.589 90.3678Z" stroke="black" stroke-miterlimit="10"/>
<path d="M91.8869 31.3481C91.8869 36.4874 89.9926 43.6752 84.8197 49.8021C81.9601 53.1857 78.9547 55.2707 77.5158 56.1851C69.1554 61.5073 60.449 61.7817 57.8079 61.7817C54.9847 61.7817 46.8429 61.4708 38.8651 56.6606C37.3715 55.7645 34.6758 53.9904 32.0165 51.2104C26.3154 45.2115 23.6561 37.4751 23.7108 31.3481C23.8019 17.8871 37.0436 0.914551 57.8079 0.914551C76.6233 0.914551 91.8869 14.5402 91.8869 31.3481Z" fill="white" stroke="black" stroke-miterlimit="10"/>
<path d="M57.8079 51.8505C70.4828 51.8505 80.7579 42.6713 80.7579 31.3481C80.7579 20.0249 70.4828 10.8457 57.8079 10.8457C45.133 10.8457 34.8579 20.0249 34.8579 31.3481C34.8579 42.6713 45.133 51.8505 57.8079 51.8505Z" fill="white" stroke="black" stroke-miterlimit="10"/>
<path d="M28.337 94.1357C27.8452 95.7086 26.6067 97.0986 24.8217 97.8668L14.2392 102.403C13.0188 102.933 11.6892 103.098 10.4324 102.933C10.2138 102.275 10.0135 101.598 9.83131 100.939C9.15738 98.4886 8.70203 95.9464 8.51988 93.3493C7.95524 85.5397 9.63096 78.1142 13.037 71.5666C15.7874 71.274 18.556 72.536 19.831 74.877L27.9363 89.9292C28.6467 91.3009 28.756 92.7823 28.337 94.1357Z" stroke="black" stroke-miterlimit="10"/>
<path d="M32.0708 101.543C32.0708 107.03 27.0983 111.474 20.9419 111.474C17.5541 111.474 14.5487 110.139 12.4905 107.999C10.8148 106.261 9.81299 103.993 9.81299 101.524C9.81299 101.305 9.8312 101.122 9.84942 100.921C10.0316 101.598 10.2319 102.256 10.4505 102.914C11.7073 103.079 13.0187 102.914 14.2573 102.384L24.8398 97.8482C26.643 97.0801 27.8633 95.6901 28.3551 94.1172C30.6137 95.9461 32.0708 98.5981 32.0708 101.543Z" stroke="black" stroke-miterlimit="10"/>
<path d="M58.4089 62.5497C57.6621 68.0731 52.2707 72.3528 45.7318 72.3528C44.1107 72.3528 42.5625 72.0784 41.1235 71.6029C41.8703 66.0795 47.2618 61.7998 53.8007 61.7998C55.4218 61.7998 56.97 62.0559 58.4089 62.5497Z" stroke="black" stroke-width="0.75" stroke-miterlimit="10"/>
<path d="M59.1924 62.5497C59.9392 68.0731 65.3306 72.3528 71.8695 72.3528C73.4906 72.3528 75.0388 72.0784 76.4777 71.6029C75.731 66.0795 70.3395 61.7998 63.8006 61.7998C62.1795 61.7998 60.6313 62.0559 59.1924 62.5497Z" stroke="black" stroke-width="0.75" stroke-miterlimit="10"/>
<path d="M77.2788 20.8132C73.5813 20.7583 69.9566 19.6244 66.587 18.1612C63.5816 16.8444 60.467 14.9788 59.8659 11.8514C58.5363 12.8756 57.1884 13.9181 55.8588 14.9423C61.9606 18.088 68.0624 21.2521 74.1641 24.3979C75.3663 25.0197 76.8599 24.8185 77.6977 23.6846C78.4263 22.697 78.572 20.9412 77.4791 20.0816C75.767 18.7282 74.0184 17.4845 72.1241 16.3688C71.4138 18.0332 70.7216 19.7158 70.0113 21.3801C71.0131 21.7276 72.1606 22.3312 72.962 22.953C74.0366 23.7943 75.4027 24.087 76.5502 23.1725C77.5156 22.4043 78.0802 20.74 77.2606 19.6244C75.4574 17.2467 73.1259 15.619 70.6124 14.0461C69.7017 15.619 68.7727 17.2102 67.862 18.783C68.882 19.2586 69.8109 19.8438 70.5395 20.5022C71.8327 19.2037 73.1077 17.9234 74.4009 16.6249C70.3938 13.3877 65.7309 11.1564 60.6491 10.2053C59.192 9.93097 57.6984 10.6077 57.2795 12.1257C56.9152 13.4608 57.7349 15.2349 59.192 15.5092C63.3266 16.2774 67.3338 17.9234 70.5213 20.5205C71.6688 21.4533 73.2717 21.6545 74.3827 20.5205C75.3845 19.5146 75.4938 17.6308 74.3827 16.6432C73.2352 15.619 71.9967 14.7228 70.6124 14.0644C69.2827 13.4242 67.6616 13.6986 66.8784 15.052C66.1134 16.3688 66.6052 18.0149 67.862 18.8013C69.5377 19.8438 71.4684 20.9595 72.5431 22.4043C73.982 21.2887 75.4027 20.1913 76.8417 19.0757C75.1842 17.7771 73.472 16.8078 71.4867 16.0945C68.5177 15.0337 66.7509 19.5695 69.3738 21.1058C70.8492 21.9654 72.2881 22.8982 73.6177 23.9589C74.7288 22.5141 75.8216 21.0875 76.9327 19.6426C70.8309 16.4969 64.7291 13.3328 58.6274 10.187C56.4234 9.05308 54.1466 10.9186 54.6202 13.2779C55.5127 17.832 59.5563 20.9046 63.527 22.7153C67.862 24.6905 72.4884 26.1903 77.297 26.2634C78.7724 26.2817 80.0292 24.9831 80.0292 23.52C80.0109 22.0386 78.7542 20.8315 77.2788 20.8132Z" fill="black"/>
<path d="M57.2798 11.2478C53.8555 17.7771 45.5862 19.606 38.8105 20.1913C39.2658 21.8922 39.7212 23.5931 40.1948 25.3123C42.4716 23.7394 44.7483 22.1666 47.0433 20.6302C48.883 19.3866 50.8319 18.088 53.1269 18.0514C52.4712 16.4603 51.8337 14.9057 51.1962 13.3511C49.6115 14.613 47.7719 15.5824 45.8958 16.2591C46.3876 18.0149 46.8612 19.7889 47.353 21.5447C50.7408 20.1181 54.0012 18.5087 57.0976 16.5334C58.9737 15.3446 58.8462 12.0342 56.4419 11.5221C52.9083 10.754 49.5933 12.0525 46.4605 13.6071C43.6373 15.0154 41.0326 16.8626 38.683 19.0025C37.5901 20.0084 37.6812 21.8739 38.683 22.8798C39.7941 23.9955 41.4151 23.8492 42.5444 22.8798C45.9141 20.0084 49.9394 18.088 54.2015 17.0089C57.1705 16.2591 56.5694 11.5587 53.473 11.6136C50.0123 11.6867 46.843 12.8755 44.1655 15.0886C41.7612 17.0821 44.8758 21.0143 47.4805 19.4049C49.2108 18.3258 50.9958 17.3564 52.8719 16.57C54.238 16.003 55.2033 14.7411 54.7844 13.1865C54.3655 11.6502 52.8719 11.01 51.4148 11.2661C45.6408 12.3269 40.468 15.5458 37.0073 20.3193C36.2241 21.4167 36.7158 23.1176 37.7176 23.8675C38.7923 24.6722 40.3223 24.6356 41.3058 23.648C45.058 19.8438 49.9576 17.6125 55.1123 16.4054C56.278 16.1311 57.1158 14.924 57.1158 13.7534C57.1158 12.6561 56.278 11.2844 55.1123 11.1015C52.1069 10.6442 48.9923 11.0832 46.5333 12.9853C45.3676 13.8815 44.7483 15.3446 45.5498 16.7346C46.2965 18.0149 48.0087 18.4721 49.2837 17.7222C51.8337 16.2225 54.6751 15.4543 57.6441 15.4178C61.1594 15.3629 61.1594 9.89437 57.6441 9.93095C52.6533 9.98582 47.6262 11.449 43.528 14.357C42.3258 15.2166 41.7612 16.7529 42.5444 18.1063C43.273 19.35 45.0398 19.8987 46.2783 19.0939C50.4858 16.3505 55.6951 15.2897 60.6312 16.2408C62.0883 16.5151 63.5819 15.8384 64.0008 14.3204C64.3651 12.9853 63.5455 11.2295 62.0883 10.9369C55.768 9.78464 49.0287 10.8454 43.5644 14.3936C44.4751 15.9665 45.404 17.5576 46.3148 19.1305C49.6662 16.7529 53.5641 15.4909 57.6623 15.4543C57.6623 13.6254 57.6623 11.7965 57.6623 9.96753C53.7462 10.0224 49.9212 11.0466 46.5516 13.0219C47.4623 14.5947 48.3912 16.1859 49.3019 17.7588C50.5405 16.8078 52.0887 16.1859 53.6551 16.4237C53.6551 14.6679 53.6551 12.8938 53.6551 11.1381C47.6262 12.5463 41.8341 15.3446 37.4444 19.7889C38.8833 20.9046 40.304 22.002 41.743 23.1176C44.3112 19.5695 48.5551 17.393 52.8719 16.5883C52.3801 14.8325 51.9066 13.0584 51.4148 11.3027C49.0833 12.272 46.843 13.3511 44.7119 14.6862C45.823 16.1311 46.9158 17.5576 48.0269 19.0025C49.5387 17.7588 51.524 17.1736 53.473 17.137C53.2362 15.3446 52.9812 13.5523 52.7444 11.7416C47.5351 13.0584 42.763 15.5275 38.6648 19.0208C39.958 20.3193 41.233 21.5996 42.5262 22.8981C44.3294 21.2521 46.333 19.8621 48.5005 18.7282C50.3401 17.7588 52.8173 16.3688 54.9483 16.8261C54.7298 15.1617 54.5112 13.4791 54.2926 11.8148C51.5969 13.5157 48.7919 15.0337 45.8594 16.2591C44.4933 16.8261 43.528 18.0697 43.9469 19.6426C44.3112 20.996 45.9141 22.0568 47.3166 21.563C50.158 20.5388 52.6716 19.1305 55.0394 17.2467C56.9519 15.7287 55.3126 12.528 53.1087 12.5646C50.1033 12.6012 47.3894 13.8449 44.8941 15.4726C42.3623 17.1187 39.9033 18.8745 37.408 20.5754C36.4062 21.2704 35.8233 22.4409 36.1512 23.6663C36.4426 24.7637 37.6083 25.7879 38.7923 25.6781C47.4623 24.9465 57.5712 22.4043 61.979 14.0278C62.6712 12.7109 62.3069 11.0466 60.9955 10.2784C59.7751 9.52858 57.9537 9.93095 57.2798 11.2478Z" fill="black"/>
<path d="M41.6518 22.423C40.0854 22.7156 38.5007 23.0265 36.9343 23.3192C36.6064 23.374 36.4061 23.7581 36.4425 24.069C36.4971 24.4165 36.7704 24.6543 37.1164 24.6726C37.6993 24.6909 38.2821 24.7092 38.865 24.7092C39.2293 24.7092 39.5571 24.3799 39.5571 24.0142C39.5571 23.6301 39.2475 23.3557 38.865 23.3192C38.1364 23.2643 37.4443 23.4289 36.7886 23.7581C36.1693 24.069 36.4789 25.0567 37.1346 25.0384C37.9543 25.0201 38.7921 24.892 39.5936 24.6543C40.3404 24.4348 40.1764 23.3374 39.4114 23.3009C38.3914 23.2643 37.3714 23.3923 36.4061 23.6667C35.6593 23.8678 35.8232 24.9835 36.5882 25.0201C37.4807 25.0567 38.355 24.9652 39.2293 24.7823C39.9761 24.6177 39.8121 23.374 39.0471 23.4289C38.2275 23.5021 37.4261 23.5569 36.6064 23.6301C36.7704 24.0142 36.9343 24.4165 37.0982 24.8006C37.6629 24.2336 38.2093 23.6667 38.7739 23.0997C39.3932 22.4778 38.4279 21.5085 37.8086 22.1304C37.2439 22.6973 36.6975 23.2643 36.1329 23.8313C35.7504 24.2336 36.0054 25.0567 36.6246 25.0018C37.4443 24.9286 38.2457 24.8738 39.0654 24.8006C39.0107 24.3434 38.9379 23.9044 38.8832 23.4472C38.1364 23.6118 37.3714 23.6667 36.6064 23.6301C36.6611 24.0873 36.7339 24.5263 36.7886 24.9835C37.6629 24.7457 38.5371 24.636 39.4479 24.6726C39.3932 24.2153 39.3204 23.7764 39.2657 23.3192C38.5736 23.5203 37.8996 23.6301 37.1711 23.6484C37.2804 24.069 37.4079 24.508 37.5171 24.9286C37.9543 24.7092 38.4096 24.6543 38.9014 24.6726C38.9014 24.2153 38.9014 23.7581 38.9014 23.3009C38.3186 23.2826 37.7357 23.2643 37.1529 23.2643C37.2075 23.7215 37.2804 24.1605 37.335 24.6177C38.9014 24.3251 40.4861 24.0142 42.0525 23.7215C42.4168 23.6484 42.6171 23.2094 42.5261 22.8802C42.3804 22.5327 42.0161 22.3681 41.6518 22.423Z" fill="black"/>
<path d="M76.3499 24.91C77.1877 25.166 78.0256 25.4221 78.8817 25.6599C78.9363 25.2026 79.0092 24.7637 79.0638 24.3064C78.8635 24.3064 78.6631 24.2882 78.4627 24.2699C78.4081 24.2699 78.317 24.2699 78.2806 24.2516C78.317 24.2516 78.3352 24.2516 78.3717 24.2699C78.3352 24.2699 78.317 24.2699 78.2806 24.2516C78.1895 24.2333 78.0803 24.215 77.9892 24.1967C77.5885 24.1235 77.206 23.9955 76.8235 23.8492C76.7688 24.3064 76.696 24.7454 76.6413 25.2026C77.3517 25.166 78.062 25.2026 78.7724 25.2758C78.7178 24.8185 78.6449 24.3796 78.5902 23.9224C78.481 23.9407 78.3352 23.9955 78.2077 23.9955C78.3899 23.9955 78.2442 23.9955 78.1895 23.9955C78.1167 23.9955 78.062 24.0138 77.9892 24.0138C77.7524 24.0321 77.5156 24.0138 77.2606 23.9955C77.2606 24.4528 77.2606 24.91 77.2606 25.3672C77.6431 25.3672 78.0256 25.3672 78.4081 25.3672C78.4081 24.91 78.4081 24.4528 78.4081 23.9955C78.1713 24.0138 77.9345 24.0321 77.6978 24.0138C77.6795 24.0138 77.5156 24.0138 77.5156 23.9955C77.552 23.9955 77.5703 23.9955 77.6067 24.0138C77.5703 24.0138 77.552 23.9955 77.5156 23.9955C77.3881 23.9772 77.2788 23.9407 77.1513 23.9224C77.0238 24.3613 76.9145 24.8003 76.787 25.2392C77.297 25.3306 77.807 25.4221 78.3352 25.5135C78.3899 25.0563 78.4628 24.6174 78.5174 24.1601C77.9528 24.1601 77.3699 24.1601 76.8052 24.1601C76.441 24.1601 76.1131 24.471 76.1131 24.8551C76.1131 25.038 76.186 25.2209 76.3135 25.3489C76.4592 25.477 76.6049 25.5318 76.8052 25.5501C77.3881 25.6233 77.9892 25.6781 78.572 25.7513C78.736 25.7696 78.9363 25.6599 79.0638 25.5501C79.1913 25.4221 79.2642 25.2392 79.2642 25.0563C79.2642 24.8734 79.1913 24.6905 79.0638 24.5625C78.9181 24.4345 78.7724 24.3796 78.572 24.3613C77.9892 24.2881 77.3881 24.2333 76.8052 24.1601C76.8052 24.6174 76.8052 25.0746 76.8052 25.5318C77.3699 25.5318 77.9528 25.5318 78.5174 25.5318C78.8635 25.5318 79.1367 25.2758 79.1913 24.9283C79.2278 24.6174 79.0456 24.2333 78.6995 24.1784C78.1895 24.087 77.6795 23.9955 77.1513 23.9041C76.9692 23.8675 76.787 23.8675 76.6231 23.9772C76.4774 24.0687 76.3499 24.215 76.3135 24.3796C76.2406 24.7454 76.4228 25.1295 76.787 25.2209C77.3153 25.3672 77.8617 25.4221 78.4081 25.3489C78.5903 25.3306 78.7542 25.2941 78.8999 25.1478C79.0274 25.0197 79.1003 24.8368 79.1003 24.6539C79.082 24.2881 78.8088 23.9589 78.4081 23.9589C78.0256 23.9589 77.6431 23.9589 77.2606 23.9589C76.8963 23.9589 76.5685 24.2699 76.5685 24.6539C76.5867 25.0563 76.8781 25.2941 77.2606 25.3489C77.8252 25.4038 78.3899 25.3489 78.9181 25.2392C79.246 25.166 79.4463 24.8003 79.4099 24.4893C79.3917 24.343 79.337 24.1967 79.2278 24.087C79.082 23.9589 78.9363 23.9041 78.736 23.8858C78.0256 23.8126 77.3152 23.776 76.6049 23.8126C76.2588 23.8309 75.9856 24.0687 75.931 24.4162C75.8763 24.782 76.0949 25.038 76.4227 25.166C77.2606 25.4953 78.1531 25.6599 79.0456 25.6781C79.3917 25.6781 79.6649 25.4038 79.7195 25.0746C79.756 24.7271 79.5556 24.4162 79.2278 24.3247C78.3899 24.0687 77.552 23.8126 76.696 23.5749C76.3499 23.4651 75.931 23.7029 75.8581 24.0504C75.7852 24.4345 75.9856 24.782 76.3499 24.91Z" fill="black"/>
<path d="M72.9439 31.1104C70.485 32.4455 67.2428 32.1895 65.0025 30.5069C64.7111 30.2874 64.2375 30.452 64.0736 30.7446C63.8732 31.0921 64.0189 31.4579 64.3103 31.6774C66.9332 33.6526 70.7764 33.8172 73.6361 32.2809C74.4011 31.8603 73.7089 30.6898 72.9439 31.1104Z" fill="black"/>
<path d="M50.8863 30.0494C48.4274 31.3845 45.1852 31.1284 42.9449 29.4458C42.6534 29.2263 42.1799 29.391 42.0159 29.6836C41.8156 30.0311 41.9613 30.3969 42.2527 30.6163C44.8756 32.5916 48.7188 32.7562 51.5784 31.2199C52.3434 30.7992 51.6513 29.6287 50.8863 30.0494Z" fill="black"/>
<path d="M84.9106 100.647C84.9106 106.133 89.8831 110.578 96.0396 110.578C99.4274 110.578 102.433 109.243 104.491 107.103C105.292 105.457 105.985 103.756 106.549 102.018C105.292 102.183 103.981 102.018 102.742 101.488L92.1599 96.9522C90.3567 96.1841 89.1364 94.7941 88.6446 93.2212C86.3678 95.0318 84.9106 97.6838 84.9106 100.647Z" fill="white" stroke="black" stroke-miterlimit="10"/>
<path d="M88.5354 93.605C89.0271 95.1779 90.2657 96.5679 92.0507 97.336L102.633 101.872C103.854 102.402 105.183 102.567 106.44 102.402C106.659 101.744 106.859 101.067 107.041 100.409C107.715 97.9579 108.17 95.4156 108.352 92.8185C108.917 85.009 107.241 77.5835 103.835 71.0359C101.085 70.7432 98.3164 72.0052 97.0414 74.3462L88.9361 89.3984C88.2257 90.7701 88.1164 92.2699 88.5354 93.605Z" stroke="black" stroke-miterlimit="10"/>
</g>
<path d="M2.016 175.108C2.016 174.772 2.028 174.484 2.052 174.244C2.076 173.98 2.124 173.752 2.196 173.56C2.844 173.512 3.348 173.404 3.708 173.236C4.068 173.044 4.32 172.732 4.464 172.3C4.608 171.844 4.68 171.22 4.68 170.428V155.236C4.68 154.42 4.608 153.796 4.464 153.364C4.32 152.932 4.068 152.62 3.708 152.428C3.348 152.236 2.844 152.128 2.196 152.104C2.124 151.912 2.076 151.684 2.052 151.42C2.028 151.156 2.016 150.868 2.016 150.556C2.952 150.604 3.852 150.64 4.716 150.664C5.604 150.664 6.336 150.664 6.912 150.664C7.248 150.664 7.716 150.664 8.316 150.664C8.94 150.64 9.552 150.628 10.152 150.628C10.752 150.604 11.196 150.592 11.484 150.592C13.476 150.592 15.072 150.916 16.272 151.564C17.472 152.212 18.336 153.064 18.864 154.12C19.392 155.176 19.656 156.328 19.656 157.576C19.656 158.944 19.344 160.264 18.72 161.536C18.12 162.808 17.22 163.852 16.02 164.668C14.82 165.484 13.308 165.892 11.484 165.892C10.476 165.892 9.636 165.76 8.964 165.496C8.916 165.232 8.892 164.98 8.892 164.74C8.892 164.5 8.928 164.26 9 164.02C9.312 164.092 9.624 164.152 9.936 164.2C10.248 164.224 10.572 164.236 10.908 164.236C11.796 164.236 12.624 164.08 13.392 163.768C14.16 163.456 14.784 162.904 15.264 162.112C15.744 161.296 15.984 160.132 15.984 158.62C15.984 156.7 15.504 155.152 14.544 153.976C13.608 152.776 12.06 152.176 9.9 152.176C9.636 152.176 9.324 152.2 8.964 152.248C8.628 152.272 8.148 152.356 7.524 152.5L8.064 151.96V169.708C8.064 170.74 8.172 171.532 8.388 172.084C8.604 172.612 8.952 172.984 9.432 173.2C9.912 173.392 10.524 173.512 11.268 173.56C11.34 173.752 11.388 173.98 11.412 174.244C11.436 174.484 11.448 174.772 11.448 175.108C11.088 175.084 10.656 175.06 10.152 175.036C9.672 175.036 9.156 175.024 8.604 175C8.052 175 7.488 175 6.912 175C6.36 175 5.76 175 5.112 175C4.464 175.024 3.864 175.036 3.312 175.036C2.76 175.06 2.328 175.084 2.016 175.108ZM29.7908 175.324C28.1588 175.324 26.7308 174.976 25.5068 174.28C24.2828 173.56 23.3348 172.564 22.6628 171.292C21.9908 169.996 21.6548 168.484 21.6548 166.756C21.6548 165.124 22.0028 163.66 22.6988 162.364C23.3948 161.068 24.3548 160.048 25.5788 159.304C26.8028 158.56 28.2068 158.188 29.7908 158.188C31.4948 158.188 32.9468 158.548 34.1468 159.268C35.3708 159.988 36.3068 160.996 36.9548 162.292C37.6028 163.564 37.9268 165.052 37.9268 166.756C37.9268 168.388 37.5788 169.852 36.8828 171.148C36.2108 172.444 35.2628 173.464 34.0388 174.208C32.8388 174.952 31.4228 175.324 29.7908 175.324ZM30.0788 173.596C31.5188 173.596 32.5868 173.008 33.2828 171.832C33.9788 170.632 34.3268 169.084 34.3268 167.188C34.3268 165.7 34.0988 164.416 33.6428 163.336C33.2108 162.232 32.6228 161.392 31.8788 160.816C31.1348 160.216 30.3188 159.916 29.4308 159.916C28.0388 159.916 26.9948 160.48 26.2988 161.608C25.6268 162.736 25.2908 164.2 25.2908 166C25.2908 167.608 25.4828 168.988 25.8668 170.14C26.2748 171.268 26.8388 172.132 27.5588 172.732C28.2788 173.308 29.1188 173.596 30.0788 173.596ZM54.207 172.192C53.559 173.224 52.755 174.004 51.795 174.532C50.835 175.06 49.671 175.324 48.303 175.324C47.079 175.324 45.891 175.012 44.739 174.388C43.611 173.74 42.675 172.792 41.931 171.544C41.187 170.272 40.815 168.7 40.815 166.828C40.815 165.388 41.103 164.008 41.679 162.688C42.255 161.368 43.095 160.288 44.199 159.448C45.327 158.608 46.695 158.188 48.303 158.188C49.407 158.188 50.415 158.32 51.327 158.584C52.263 158.848 53.067 159.256 53.739 159.808C53.643 160.504 53.571 161.188 53.523 161.86C53.499 162.532 53.487 163.216 53.487 163.912C53.295 164.008 53.031 164.08 52.695 164.128C52.383 164.176 52.095 164.2 51.831 164.2C51.687 162.808 51.279 161.74 50.607 160.996C49.935 160.252 49.071 159.88 48.015 159.88C46.839 159.88 45.903 160.432 45.207 161.536C44.511 162.64 44.163 164.224 44.163 166.288C44.163 167.488 44.355 168.628 44.739 169.708C45.147 170.764 45.735 171.628 46.503 172.3C47.271 172.948 48.207 173.272 49.311 173.272C50.079 173.272 50.799 173.092 51.471 172.732C52.167 172.372 52.779 171.856 53.307 171.184C53.499 171.28 53.679 171.424 53.847 171.616C54.015 171.784 54.135 171.976 54.207 172.192ZM70.3086 172.192C69.6606 173.224 68.8566 174.004 67.8966 174.532C66.9366 175.06 65.7726 175.324 64.4046 175.324C63.1806 175.324 61.9926 175.012 60.8406 174.388C59.7126 173.74 58.7766 172.792 58.0326 171.544C57.2886 170.272 56.9166 168.7 56.9166 166.828C56.9166 165.388 57.2046 164.008 57.7806 162.688C58.3566 161.368 59.1966 160.288 60.3006 159.448C61.4286 158.608 62.7966 158.188 64.4046 158.188C65.5086 158.188 66.5166 158.32 67.4286 158.584C68.3646 158.848 69.1686 159.256 69.8406 159.808C69.7446 160.504 69.6726 161.188 69.6246 161.86C69.6006 162.532 69.5886 163.216 69.5886 163.912C69.3966 164.008 69.1326 164.08 68.7966 164.128C68.4846 164.176 68.1966 164.2 67.9326 164.2C67.7886 162.808 67.3806 161.74 66.7086 160.996C66.0366 160.252 65.1726 159.88 64.1166 159.88C62.9406 159.88 62.0046 160.432 61.3086 161.536C60.6126 162.64 60.2646 164.224 60.2646 166.288C60.2646 167.488 60.4566 168.628 60.8406 169.708C61.2486 170.764 61.8366 171.628 62.6046 172.3C63.3726 172.948 64.3086 173.272 65.4126 173.272C66.1806 173.272 66.9006 173.092 67.5726 172.732C68.2686 172.372 68.8806 171.856 69.4086 171.184C69.6006 171.28 69.7806 171.424 69.9486 171.616C70.1166 171.784 70.2366 171.976 70.3086 172.192ZM84.3581 175.108C84.3581 174.772 84.3701 174.484 84.3941 174.244C84.4181 174.004 84.4661 173.776 84.5381 173.56C85.2581 173.56 85.7861 173.356 86.1221 172.948C86.4821 172.516 86.6621 171.676 86.6621 170.428V163.084C86.6621 161.836 86.4821 161.008 86.1221 160.6C85.7861 160.168 85.2581 159.952 84.5381 159.952C84.4661 159.736 84.4181 159.508 84.3941 159.268C84.3701 159.004 84.3581 158.716 84.3581 158.404C84.8861 158.428 85.4861 158.452 86.1581 158.476C86.8301 158.5 87.5381 158.512 88.2821 158.512C89.0261 158.512 89.7341 158.5 90.4061 158.476C91.0781 158.452 91.6781 158.428 92.2061 158.404C92.2061 158.716 92.1941 159.004 92.1701 159.268C92.1461 159.508 92.0981 159.736 92.0261 159.952C91.3061 159.952 90.7661 160.168 90.4061 160.6C90.0701 161.008 89.9021 161.836 89.9021 163.084V170.428C89.9021 171.676 90.0701 172.516 90.4061 172.948C90.7661 173.356 91.3061 173.56 92.0261 173.56C92.0981 173.776 92.1461 174.004 92.1701 174.244C92.1941 174.484 92.2061 174.772 92.2061 175.108C91.6781 175.06 91.0781 175.024 90.4061 175C89.7341 175 89.0261 175 88.2821 175C87.5381 175 86.8301 175 86.1581 175C85.4861 175.024 84.8861 175.06 84.3581 175.108ZM72.8741 175.108C72.8741 174.772 72.8861 174.484 72.9101 174.244C72.9341 174.004 72.9821 173.776 73.0541 173.56C73.7741 173.56 74.3021 173.356 74.6381 172.948C74.9981 172.516 75.1781 171.676 75.1781 170.428V163.084C75.1781 161.836 74.9981 161.008 74.6381 160.6C74.3021 160.168 73.7741 159.952 73.0541 159.952C72.9821 159.736 72.9341 159.508 72.9101 159.268C72.8861 159.004 72.8741 158.716 72.8741 158.404C73.4021 158.428 74.0021 158.452 74.6741 158.476C75.3461 158.5 76.0541 158.512 76.7981 158.512C77.5421 158.512 78.2501 158.5 78.9221 158.476C79.5941 158.452 80.1941 158.428 80.7221 158.404C80.7221 158.716 80.7101 159.004 80.6861 159.268C80.6621 159.508 80.6141 159.736 80.5421 159.952C79.8221 159.952 79.2821 160.168 78.9221 160.6C78.5861 161.008 78.4181 161.836 78.4181 163.084V170.428C78.4181 171.676 78.5861 172.516 78.9221 172.948C79.2821 173.356 79.8221 173.56 80.5421 173.56C80.6141 173.776 80.6621 174.004 80.6861 174.244C80.7101 174.484 80.7221 174.772 80.7221 175.108C80.1941 175.06 79.5941 175.024 78.9221 175C78.2501 175 77.5421 175 76.7981 175C76.0541 175 75.3461 175 74.6741 175C74.0021 175.024 73.4021 175.06 72.8741 175.108ZM77.7701 172.228V170.068L87.4181 161.176V163.3L77.7701 172.228ZM103.668 175.072C103.668 174.808 103.68 174.532 103.704 174.244C103.728 173.956 103.776 173.728 103.848 173.56C104.544 173.536 105.012 173.38 105.252 173.092C105.516 172.78 105.648 172.084 105.648 171.004V159.412L105.792 160.24C105.408 160.144 105.024 160.084 104.64 160.06C104.256 160.012 103.896 159.988 103.56 159.988C102.168 159.988 101.184 160.276 100.608 160.852C100.032 161.404 99.7436 162.172 99.7436 163.156C99.7436 164.356 100.152 165.28 100.968 165.928C101.808 166.552 102.948 166.864 104.388 166.864C104.628 166.864 104.832 166.852 105 166.828C105.192 166.804 105.408 166.78 105.648 166.756V167.944H102.588C101.388 167.872 100.296 167.644 99.3116 167.26C98.3276 166.876 97.5476 166.348 96.9716 165.676C96.4196 164.98 96.1436 164.176 96.1436 163.264C96.1436 162.472 96.3716 161.704 96.8276 160.96C97.3076 160.216 98.0996 159.616 99.2036 159.16C100.308 158.68 101.784 158.44 103.632 158.44C104.112 158.44 104.664 158.452 105.288 158.476C105.912 158.5 106.608 158.512 107.376 158.512C107.928 158.512 108.576 158.512 109.32 158.512C110.064 158.488 110.616 158.464 110.976 158.44C110.976 158.56 110.964 158.716 110.94 158.908C110.94 159.076 110.928 159.256 110.904 159.448C110.904 159.616 110.88 159.772 110.832 159.916C110.304 159.94 109.896 160.024 109.608 160.168C109.32 160.312 109.116 160.552 108.996 160.888C108.876 161.2 108.816 161.68 108.816 162.328V171.112C108.816 172.096 108.948 172.744 109.212 173.056C109.5 173.344 110.04 173.512 110.832 173.56C110.928 173.92 110.976 174.424 110.976 175.072C110.496 175.048 109.908 175.024 109.212 175C108.54 175 108 175 107.592 175C107.28 175 106.896 175 106.44 175C105.984 175 105.504 175 105 175C104.52 175.024 104.076 175.048 103.668 175.072ZM98.8076 175.216C98.3036 175.144 97.8236 175.096 97.3676 175.072C96.9116 175.048 96.4436 175.024 95.9636 175C95.5076 175 95.0036 175 94.4516 175C94.4036 174.856 94.3556 174.688 94.3076 174.496C94.2836 174.304 94.2596 174.124 94.2356 173.956C94.2356 173.764 94.2356 173.632 94.2356 173.56C95.0276 173.488 95.6156 173.308 95.9996 173.02C96.4076 172.708 96.6956 172.36 96.8636 171.976C97.0316 171.568 97.1876 171.196 97.3316 170.86C97.5236 170.38 97.8116 169.912 98.1956 169.456C98.6036 168.976 99.1316 168.58 99.7796 168.268C100.452 167.932 101.28 167.764 102.264 167.764H105.648V168.412C104.232 168.412 103.176 168.58 102.48 168.916C101.784 169.228 101.292 169.66 101.004 170.212C100.74 170.764 100.524 171.376 100.356 172.048C100.14 172.912 99.9476 173.56 99.7796 173.992C99.6116 174.4 99.2876 174.808 98.8076 175.216Z" fill="#5D3030"/>
<defs>
<clipPath id="clip0_34_742">
<rect width="102" height="136" fill="white" transform="translate(7.5)"/>
</clipPath>
</defs>
</svg>
