<svg width="158" height="184" viewBox="0 0 158 184" fill="none" xmlns="http://www.w3.org/2000/svg">
<path d="M157.16 111.414H0.840332V135.197H157.16V111.414Z" fill="white" stroke="black" stroke-miterlimit="10"/>
<path d="M125.113 88.1133H34.2485V107.014H125.113V88.1133Z" fill="white" stroke="black" stroke-miterlimit="10"/>
<path d="M135.078 7.30664H128.894V106.5H135.078V7.30664Z" fill="white" stroke="black" stroke-miterlimit="10"/>
<path d="M28.8878 7.30664H22.7036V106.5H28.8878V7.30664Z" fill="white" stroke="black" stroke-miterlimit="10"/>
<path d="M25.7958 1.60596L32.669 12.9915H18.9058L25.7958 1.60596Z" fill="white" stroke="black" stroke-miterlimit="10"/>
<path d="M131.986 1.60596L138.876 12.9915H125.113L131.986 1.60596Z" fill="white" stroke="black" stroke-miterlimit="10"/>
<path d="M109.534 71.3481H50.2466V84.2111H109.534V71.3481Z" stroke="black" stroke-miterlimit="10"/>
<path d="M103.165 67.4299C103.401 66.0167 103.501 64.5715 103.417 63.078C102.812 50.7932 91.385 41.3347 77.8906 41.9449C64.3963 42.5552 53.9772 52.9932 54.5822 65.278C54.6158 65.9846 54.6998 66.6591 54.8007 67.3496C70.9166 67.7511 87.0493 66.9963 103.165 67.4299Z" stroke="black" stroke-miterlimit="10"/>
<path d="M44.5669 41.9131H35.7275V83.6975H44.5669V41.9131Z" stroke="black" stroke-miterlimit="10"/>
<path d="M120.962 41.9131H112.123V83.6975H120.962V41.9131Z" stroke="black" stroke-miterlimit="10"/>
<path d="M40.1469 33.2573L47.0201 44.6589H33.2568L40.1469 33.2573Z" fill="white" stroke="black" stroke-miterlimit="10"/>
<path d="M116.173 33.2573L123.063 44.6589H109.299L116.173 33.2573Z" fill="white" stroke="black" stroke-miterlimit="10"/>
<path d="M79.8909 33.1289L82.899 37.8822H76.8828L79.8909 33.1289Z" fill="white" stroke="black" stroke-miterlimit="10"/>
<path d="M79.8741 102.951C83.0334 102.935 86.2096 102.919 89.3689 102.871C89.7218 102.871 90.0915 102.855 90.4444 102.839C90.5452 102.325 90.6124 101.795 90.6124 101.265C90.6124 96.2229 85.7054 92.144 79.6724 92.144C73.6395 92.144 68.7324 96.2229 68.7324 101.265C68.7324 101.843 68.7996 102.422 68.9341 102.984C72.5808 102.968 76.2274 102.968 79.8741 102.951Z" fill="white" stroke="black" stroke-miterlimit="10"/>
<path d="M9.19238 105.569C11.5619 105.537 13.9314 105.505 16.3009 105.424C16.5698 105.408 16.8386 105.392 17.1075 105.36C17.1915 104.397 17.2419 103.417 17.2419 102.405C17.2419 93.0111 13.5785 85.3833 9.04114 85.3833C4.50381 85.3833 0.840332 93.0111 0.840332 102.421C0.840332 103.513 0.890747 104.573 0.991576 105.617C3.73078 105.601 6.45318 105.601 9.19238 105.569Z" fill="white" stroke="black" stroke-miterlimit="10"/>
<path d="M147.228 106.597C149.598 106.565 151.967 106.533 154.337 106.452C154.605 106.436 154.874 106.42 155.143 106.388C155.227 105.424 155.278 104.445 155.278 103.433C155.278 94.0389 151.614 86.4111 147.077 86.4111C142.539 86.4111 138.876 94.0389 138.876 103.433C138.876 104.525 138.926 105.585 139.027 106.629C141.766 106.629 144.489 106.629 147.228 106.597Z" fill="white" stroke="black" stroke-miterlimit="10"/>
<path d="M79.9747 83.6975C81.2519 83.6814 82.5291 83.6653 83.7894 83.6332C83.9407 83.6332 84.0751 83.6172 84.2264 83.6011C84.2768 83.2157 84.2936 82.8142 84.2936 82.3967C84.2936 78.5587 82.3274 75.4434 79.8907 75.4434C77.454 75.4434 75.4878 78.5587 75.4878 82.3967C75.4878 82.8464 75.5214 83.2799 75.5718 83.6975C77.0339 83.7135 78.5127 83.6975 79.9747 83.6975Z" fill="white" stroke="black" stroke-miterlimit="10"/>
<path d="M60.1114 83.6975C61.3886 83.6814 62.6658 83.6653 63.9262 83.6332C64.0774 83.6332 64.2118 83.6172 64.3631 83.6011C64.4135 83.2157 64.4303 82.8142 64.4303 82.3967C64.4303 78.5587 62.4641 75.4434 60.0274 75.4434C57.5907 75.4434 55.6245 78.5587 55.6245 82.3967C55.6245 82.8464 55.6581 83.2799 55.7085 83.6975C57.1706 83.7135 58.6326 83.6975 60.1114 83.6975Z" fill="white" stroke="black" stroke-miterlimit="10"/>
<path d="M99.1324 83.6975C100.41 83.6814 101.687 83.6653 102.947 83.6332C103.098 83.6332 103.233 83.6172 103.384 83.6011C103.434 83.2157 103.451 82.8142 103.451 82.3967C103.451 78.5587 101.485 75.4434 99.0484 75.4434C96.6117 75.4434 94.6455 78.5587 94.6455 82.3967C94.6455 82.8464 94.6791 83.2799 94.7295 83.6975C96.1916 83.7135 97.6536 83.6975 99.1324 83.6975Z" fill="white" stroke="black" stroke-miterlimit="10"/>
<path d="M24.128 152.248C22.976 152.248 22.1 152.44 21.5 152.824C20.924 153.184 20.504 153.688 20.24 154.336C20 154.984 19.796 155.752 19.628 156.64C19.364 156.64 19.064 156.616 18.728 156.568C18.392 156.52 18.116 156.436 17.9 156.316C18.092 155.308 18.236 154.3 18.332 153.292C18.428 152.284 18.476 151.372 18.476 150.556C19.148 150.58 19.964 150.604 20.924 150.628C21.908 150.652 22.964 150.664 24.092 150.664C25.244 150.664 26.432 150.664 27.656 150.664C28.88 150.664 30.068 150.664 31.22 150.664C32.396 150.664 33.476 150.652 34.46 150.628C35.444 150.604 36.26 150.58 36.908 150.556C36.884 151.42 36.884 152.308 36.908 153.22C36.956 154.132 37.028 155.164 37.124 156.316C36.884 156.436 36.608 156.532 36.296 156.604C36.008 156.652 35.684 156.664 35.324 156.64C35.3 155.224 34.964 154.144 34.316 153.4C33.692 152.632 32.672 152.248 31.256 152.248H24.128ZM25.964 151.636H29.348V170.428C29.348 171.22 29.42 171.844 29.564 172.3C29.708 172.732 29.984 173.044 30.392 173.236C30.8 173.404 31.388 173.512 32.156 173.56C32.228 173.752 32.276 173.98 32.3 174.244C32.324 174.484 32.336 174.772 32.336 175.108C31.568 175.06 30.776 175.024 29.96 175C29.168 175 28.388 175 27.62 175C27.116 175 26.576 175 26 175C25.448 175.024 24.908 175.036 24.38 175.036C23.852 175.06 23.36 175.084 22.904 175.108C22.904 174.772 22.916 174.484 22.94 174.244C22.964 173.98 23.012 173.752 23.084 173.56C23.852 173.512 24.44 173.404 24.848 173.236C25.28 173.044 25.568 172.732 25.712 172.3C25.88 171.844 25.964 171.22 25.964 170.428V151.636ZM49.9096 164.272C50.5336 162.736 50.6776 161.692 50.3416 161.14C50.0296 160.564 49.3456 160.18 48.2896 159.988C48.1936 159.724 48.1216 159.472 48.0736 159.232C48.0496 158.968 48.0376 158.704 48.0376 158.44C48.5896 158.464 49.1536 158.488 49.7296 158.512C50.3056 158.512 50.9296 158.512 51.6016 158.512C52.2736 158.512 52.9096 158.512 53.5096 158.512C54.1096 158.488 54.6736 158.464 55.2016 158.44C55.2016 158.68 55.1896 158.932 55.1656 159.196C55.1656 159.46 55.1056 159.724 54.9856 159.988C54.5536 160.084 54.1816 160.252 53.8696 160.492C53.5816 160.732 53.3056 161.104 53.0416 161.608C52.7776 162.112 52.4536 162.82 52.0696 163.732L46.7776 176.332C46.1056 177.964 45.4936 179.284 44.9416 180.292C44.4136 181.3 43.9096 182.068 43.4296 182.596C42.9736 183.124 42.5056 183.484 42.0256 183.676C41.5696 183.868 41.0656 183.964 40.5136 183.964C39.7936 183.964 39.2176 183.868 38.7856 183.676C38.3776 183.484 38.0536 183.304 37.8136 183.136C37.7176 182.776 37.6816 182.32 37.7056 181.768C37.7296 181.24 37.7776 180.82 37.8496 180.508C38.2576 180.58 38.6536 180.628 39.0376 180.652C39.4216 180.7 39.7936 180.724 40.1536 180.724C40.8496 180.724 41.5096 180.556 42.1336 180.22C42.7816 179.884 43.3336 179.344 43.7896 178.6C44.1256 178.096 44.6296 177.1 45.3016 175.612C45.9736 174.148 46.6816 172.456 47.4256 170.536L49.9096 164.272ZM45.6976 175.756C45.1216 174.484 44.5096 173.152 43.8616 171.76C43.2376 170.344 42.6376 168.988 42.0616 167.692C41.4856 166.396 40.9816 165.304 40.5496 164.416C39.9976 163.216 39.5296 162.316 39.1456 161.716C38.7856 161.116 38.4376 160.696 38.1016 160.456C37.7896 160.216 37.4296 160.06 37.0216 159.988C36.9496 159.772 36.8896 159.532 36.8416 159.268C36.8176 159.004 36.8056 158.728 36.8056 158.44C37.5016 158.464 38.1976 158.488 38.8936 158.512C39.5896 158.512 40.2496 158.512 40.8736 158.512C41.4976 158.512 42.2656 158.512 43.1776 158.512C44.0896 158.488 44.9176 158.464 45.6616 158.44C45.6616 158.752 45.6376 159.04 45.5896 159.304C45.5656 159.544 45.5056 159.772 45.4096 159.988C44.1136 160.204 43.3696 160.588 43.1776 161.14C42.9856 161.668 43.2136 162.604 43.8616 163.948C44.1976 164.644 44.5816 165.484 45.0136 166.468C45.4456 167.428 45.8656 168.4 46.2736 169.384C46.6816 170.344 47.0296 171.196 47.3176 171.94L45.6976 175.756ZM57.0742 183.82C57.0742 183.484 57.0862 183.184 57.1102 182.92C57.1342 182.68 57.1822 182.464 57.2542 182.272C57.9022 182.224 58.4062 182.104 58.7662 181.912C59.1262 181.744 59.3782 181.432 59.5222 180.976C59.6662 180.544 59.7382 179.932 59.7382 179.14V163.3C59.7382 162.724 59.6782 162.256 59.5582 161.896C59.4382 161.536 59.1862 161.26 58.8022 161.068C58.4182 160.876 57.8302 160.768 57.0382 160.744C57.0382 160.48 57.0622 160.24 57.1102 160.024C57.1582 159.808 57.2422 159.604 57.3622 159.412C58.1062 159.364 58.9582 159.22 59.9182 158.98C60.8782 158.74 61.6342 158.476 62.1862 158.188C62.4022 158.26 62.5822 158.416 62.7262 158.656C62.8942 158.872 62.9782 159.244 62.9782 159.772C62.9782 160.324 62.8942 160.852 62.7262 161.356C62.5822 161.836 62.3782 162.484 62.1142 163.3L62.9782 163.984V178.42C62.9782 179.452 63.0862 180.232 63.3022 180.76C63.5182 181.312 63.8662 181.684 64.3462 181.876C64.8262 182.092 65.4382 182.224 66.1822 182.272C66.2542 182.464 66.3022 182.68 66.3262 182.92C66.3502 183.184 66.3622 183.484 66.3622 183.82C66.0022 183.796 65.5702 183.772 65.0662 183.748C64.5862 183.748 64.0702 183.736 63.5182 183.712C62.9662 183.712 62.4022 183.712 61.8262 183.712C60.9862 183.712 60.0982 183.712 59.1622 183.712C58.2502 183.736 57.5542 183.772 57.0742 183.82ZM65.9662 175.324C65.2942 175.324 64.6942 175.264 64.1662 175.144C63.6622 175.024 63.0982 174.868 62.4742 174.676V171.904C62.9542 172.408 63.4702 172.828 64.0222 173.164C64.5982 173.5 65.3062 173.668 66.1462 173.668C66.6502 173.668 67.1902 173.572 67.7662 173.38C68.3662 173.164 68.9422 172.804 69.4942 172.3C70.0462 171.796 70.4902 171.088 70.8262 170.176C71.1862 169.264 71.3662 168.088 71.3662 166.648C71.3662 165.376 71.1862 164.284 70.8262 163.372C70.4902 162.436 70.0102 161.716 69.3862 161.212C68.7862 160.708 68.1022 160.456 67.3342 160.456C66.6382 160.456 65.9542 160.684 65.2822 161.14C64.6102 161.572 64.0582 162.292 63.6262 163.3C63.1942 164.308 62.9782 165.652 62.9782 167.332L61.9342 163.516C62.2462 162.748 62.5102 162.16 62.7262 161.752C62.9662 161.344 63.1462 161.044 63.2662 160.852C63.4822 160.492 63.8182 160.108 64.2742 159.7C64.7542 159.268 65.3302 158.908 66.0022 158.62C66.6742 158.332 67.4062 158.188 68.1982 158.188C69.6142 158.188 70.8142 158.464 71.7982 159.016C72.8062 159.568 73.5742 160.408 74.1022 161.536C74.6542 162.664 74.9302 164.104 74.9302 165.856C74.9302 167.632 74.5582 169.24 73.8142 170.68C73.0702 172.12 72.0262 173.26 70.6822 174.1C69.3382 174.916 67.7662 175.324 65.9662 175.324ZM96.0349 158.404C96.0349 158.716 96.0229 159.004 95.9989 159.268C95.9749 159.508 95.9269 159.736 95.8549 159.952C95.1349 159.952 94.5949 160.168 94.2349 160.6C93.8989 161.008 93.7309 161.836 93.7309 163.084V170.428C93.7309 171.676 93.8989 172.516 94.2349 172.948C94.5949 173.356 95.1349 173.56 95.8549 173.56C95.9269 173.776 95.9749 174.004 95.9989 174.244C96.0229 174.484 96.0349 174.772 96.0349 175.108C95.6989 175.084 95.2669 175.06 94.7389 175.036C94.2109 175.036 93.4669 175.024 92.5069 175C91.5469 175 90.2149 175 88.5109 175H85.1989C83.5189 175 82.1869 175 81.2029 175C80.2429 175.024 79.4989 175.036 78.9709 175.036C78.4669 175.06 78.0349 175.084 77.6749 175.108C77.6749 174.772 77.6869 174.484 77.7109 174.244C77.7349 174.004 77.7829 173.776 77.8549 173.56C78.5749 173.56 79.1029 173.356 79.4389 172.948C79.7989 172.516 79.9789 171.676 79.9789 170.428V163.084C79.9789 161.836 79.7989 161.008 79.4389 160.6C79.1029 160.168 78.5749 159.952 77.8549 159.952C77.7829 159.736 77.7349 159.508 77.7109 159.268C77.6869 159.004 77.6749 158.716 77.6749 158.404C78.2029 158.428 78.8029 158.452 79.4749 158.476C80.1469 158.5 80.8549 158.512 81.5989 158.512C82.3429 158.512 83.0509 158.5 83.7229 158.476C84.3949 158.452 84.9949 158.428 85.5229 158.404C85.5229 158.716 85.5109 159.004 85.4869 159.268C85.4629 159.508 85.4149 159.736 85.3429 159.952C84.6229 159.952 84.0829 160.168 83.7229 160.6C83.3869 161.008 83.2189 161.836 83.2189 163.084V170.428C83.2189 171.628 83.3869 172.444 83.7229 172.876C84.0829 173.284 84.6229 173.488 85.3429 173.488H88.3669C89.0869 173.488 89.6149 173.284 89.9509 172.876C90.3109 172.444 90.4909 171.628 90.4909 170.428V163.084C90.4909 161.836 90.3109 161.008 89.9509 160.6C89.6149 160.168 89.0869 159.952 88.3669 159.952C88.2949 159.736 88.2469 159.508 88.2229 159.268C88.1989 159.004 88.1869 158.716 88.1869 158.404C88.7149 158.428 89.3149 158.452 89.9869 158.476C90.6589 158.5 91.3669 158.512 92.1109 158.512C92.8549 158.512 93.5629 158.5 94.2349 158.476C94.9069 158.452 95.5069 158.428 96.0349 158.404ZM95.3509 181.048C95.3749 179.776 95.3269 178.516 95.2069 177.268C95.0869 176.044 94.9189 174.976 94.7029 174.064V173.56H97.4749C97.8349 173.872 98.0149 174.304 98.0149 174.856C97.8709 175.552 97.7509 176.416 97.6549 177.448C97.5829 178.504 97.5469 179.704 97.5469 181.048C97.2349 181.144 96.8749 181.192 96.4669 181.192C96.0829 181.192 95.7109 181.144 95.3509 181.048ZM111.483 175.108C111.483 174.772 111.495 174.484 111.519 174.244C111.543 174.004 111.591 173.776 111.663 173.56C112.383 173.56 112.911 173.356 113.247 172.948C113.607 172.516 113.787 171.676 113.787 170.428V163.084C113.787 161.836 113.607 161.008 113.247 160.6C112.911 160.168 112.383 159.952 111.663 159.952C111.591 159.736 111.543 159.508 111.519 159.268C111.495 159.004 111.483 158.716 111.483 158.404C112.011 158.428 112.611 158.452 113.283 158.476C113.955 158.5 114.663 158.512 115.407 158.512C116.151 158.512 116.859 158.5 117.531 158.476C118.203 158.452 118.803 158.428 119.331 158.404C119.331 158.716 119.319 159.004 119.295 159.268C119.271 159.508 119.223 159.736 119.151 159.952C118.431 159.952 117.891 160.168 117.531 160.6C117.195 161.008 117.027 161.836 117.027 163.084V170.428C117.027 171.676 117.195 172.516 117.531 172.948C117.891 173.356 118.431 173.56 119.151 173.56C119.223 173.776 119.271 174.004 119.295 174.244C119.319 174.484 119.331 174.772 119.331 175.108C118.803 175.06 118.203 175.024 117.531 175C116.859 175 116.151 175 115.407 175C114.663 175 113.955 175 113.283 175C112.611 175.024 112.011 175.06 111.483 175.108ZM99.9991 175.108C99.9991 174.772 100.011 174.484 100.035 174.244C100.059 174.004 100.107 173.776 100.179 173.56C100.899 173.56 101.427 173.356 101.763 172.948C102.123 172.516 102.303 171.676 102.303 170.428V163.084C102.303 161.836 102.123 161.008 101.763 160.6C101.427 160.168 100.899 159.952 100.179 159.952C100.107 159.736 100.059 159.508 100.035 159.268C100.011 159.004 99.9991 158.716 99.9991 158.404C100.527 158.428 101.127 158.452 101.799 158.476C102.471 158.5 103.179 158.512 103.923 158.512C104.667 158.512 105.375 158.5 106.047 158.476C106.719 158.452 107.319 158.428 107.847 158.404C107.847 158.716 107.835 159.004 107.811 159.268C107.787 159.508 107.739 159.736 107.667 159.952C106.947 159.952 106.407 160.168 106.047 160.6C105.711 161.008 105.543 161.836 105.543 163.084V170.428C105.543 171.676 105.711 172.516 106.047 172.948C106.407 173.356 106.947 173.56 107.667 173.56C107.739 173.776 107.787 174.004 107.811 174.244C107.835 174.484 107.847 174.772 107.847 175.108C107.319 175.06 106.719 175.024 106.047 175C105.375 175 104.667 175 103.923 175C103.179 175 102.471 175 101.799 175C101.127 175.024 100.527 175.06 99.9991 175.108ZM104.895 172.228V170.068L114.543 161.176V163.3L104.895 172.228ZM130.793 175.072C130.793 174.808 130.805 174.532 130.829 174.244C130.853 173.956 130.901 173.728 130.973 173.56C131.669 173.536 132.137 173.38 132.377 173.092C132.641 172.78 132.773 172.084 132.773 171.004V159.412L132.917 160.24C132.533 160.144 132.149 160.084 131.765 160.06C131.381 160.012 131.021 159.988 130.685 159.988C129.293 159.988 128.309 160.276 127.733 160.852C127.157 161.404 126.869 162.172 126.869 163.156C126.869 164.356 127.277 165.28 128.093 165.928C128.933 166.552 130.073 166.864 131.513 166.864C131.753 166.864 131.957 166.852 132.125 166.828C132.317 166.804 132.533 166.78 132.773 166.756V167.944H129.713C128.513 167.872 127.421 167.644 126.437 167.26C125.453 166.876 124.673 166.348 124.097 165.676C123.545 164.98 123.269 164.176 123.269 163.264C123.269 162.472 123.497 161.704 123.953 160.96C124.433 160.216 125.225 159.616 126.329 159.16C127.433 158.68 128.909 158.44 130.757 158.44C131.237 158.44 131.789 158.452 132.413 158.476C133.037 158.5 133.733 158.512 134.501 158.512C135.053 158.512 135.701 158.512 136.445 158.512C137.189 158.488 137.741 158.464 138.101 158.44C138.101 158.56 138.089 158.716 138.065 158.908C138.065 159.076 138.053 159.256 138.029 159.448C138.029 159.616 138.005 159.772 137.957 159.916C137.429 159.94 137.021 160.024 136.733 160.168C136.445 160.312 136.241 160.552 136.121 160.888C136.001 161.2 135.941 161.68 135.941 162.328V171.112C135.941 172.096 136.073 172.744 136.337 173.056C136.625 173.344 137.165 173.512 137.957 173.56C138.053 173.92 138.101 174.424 138.101 175.072C137.621 175.048 137.033 175.024 136.337 175C135.665 175 135.125 175 134.717 175C134.405 175 134.021 175 133.565 175C133.109 175 132.629 175 132.125 175C131.645 175.024 131.201 175.048 130.793 175.072ZM125.933 175.216C125.429 175.144 124.949 175.096 124.493 175.072C124.037 175.048 123.569 175.024 123.089 175C122.633 175 122.129 175 121.577 175C121.529 174.856 121.481 174.688 121.433 174.496C121.409 174.304 121.385 174.124 121.361 173.956C121.361 173.764 121.361 173.632 121.361 173.56C122.153 173.488 122.741 173.308 123.125 173.02C123.533 172.708 123.821 172.36 123.989 171.976C124.157 171.568 124.313 171.196 124.457 170.86C124.649 170.38 124.937 169.912 125.321 169.456C125.729 168.976 126.257 168.58 126.905 168.268C127.577 167.932 128.405 167.764 129.389 167.764H132.773V168.412C131.357 168.412 130.301 168.58 129.605 168.916C128.909 169.228 128.417 169.66 128.129 170.212C127.865 170.764 127.649 171.376 127.481 172.048C127.265 172.912 127.073 173.56 126.905 173.992C126.737 174.4 126.413 174.808 125.933 175.216Z" fill="#5D3030"/>
</svg>
