<svg width="127" height="197" viewBox="0 0 127 197" fill="none" xmlns="http://www.w3.org/2000/svg">
<g clip-path="url(#clip0_34_744)">
<path d="M65.617 69.7342C89.0036 69.7342 107.962 56.2016 107.962 39.5082C107.962 22.8149 89.0036 9.28223 65.617 9.28223C42.2305 9.28223 23.272 22.8149 23.272 39.5082C23.272 56.2016 42.2305 69.7342 65.617 69.7342Z" stroke="black" stroke-miterlimit="10"/>
<path d="M61.5079 43.571C59.0779 40.868 61.2041 36.686 64.9384 36.839C68.6726 36.992 70.4593 41.276 67.815 43.809C66.0461 45.492 63.1338 45.39 61.5079 43.571Z" stroke="black" stroke-miterlimit="10"/>
<path d="M103.263 24.769C104.764 21.811 105.604 19.21 106.086 17.323C106.73 14.773 107.48 11.713 107.033 7.786C106.658 4.522 106.712 2.873 105.461 1.836C103.031 -0.187001 98.4393 1.411 96.3846 2.142C92.972 3.332 90.7207 5.202 87.9335 7.497C85.7179 9.333 84.0563 11.033 82.9307 12.257" stroke="black" stroke-miterlimit="10"/>
<path d="M100.226 21.267C101.173 19.482 101.709 17.901 102.013 16.762C102.424 15.215 102.888 13.362 102.602 10.999C102.37 9.02702 102.406 8.02402 101.619 7.39502C100.083 6.17102 97.1884 7.14002 95.8841 7.58202C93.7222 8.31302 92.3107 9.43502 90.5419 10.829C89.1482 11.934 88.0941 12.971 87.3794 13.719" stroke="black" stroke-miterlimit="10"/>
<path d="M27.9891 24.769C26.4882 21.811 25.6485 19.21 25.1661 17.323C24.5228 14.773 23.7724 11.713 24.2191 7.786C24.5943 4.522 24.5407 2.873 25.7914 1.836C28.2213 -0.187001 32.8132 1.411 34.8679 2.142C38.2805 3.332 40.5318 5.202 43.319 7.497C45.5346 9.333 47.1962 11.033 48.3218 12.257" stroke="black" stroke-miterlimit="10"/>
<path d="M31.0267 21.2669C30.0797 19.4819 29.5437 17.9009 29.2399 16.7619C28.829 15.2149 28.3645 13.3619 28.6503 10.9989C28.8826 9.00993 28.8647 8.00693 29.633 7.37793C31.1696 6.15393 34.0641 7.12293 35.3684 7.56493C37.5303 8.29593 38.9418 9.41793 40.7106 10.8119C42.1043 11.9169 43.1584 12.9539 43.8731 13.7019" stroke="black" stroke-miterlimit="10"/>
<path d="M29.4544 66.2661C36.6677 66.2661 42.5153 61.7984 42.5153 56.2871C42.5153 50.7759 36.6677 46.3081 29.4544 46.3081C22.2411 46.3081 16.3936 50.7759 16.3936 56.2871C16.3936 61.7984 22.2411 66.2661 29.4544 66.2661Z" fill="white" stroke="black" stroke-miterlimit="10"/>
<path d="M29.4364 94.2821C36.0182 94.2821 41.3538 86.0848 41.3538 75.9731C41.3538 65.8613 36.0182 57.6641 29.4364 57.6641C22.8546 57.6641 17.519 65.8613 17.519 75.9731C17.519 86.0848 22.8546 94.2821 29.4364 94.2821Z" fill="white" stroke="black" stroke-miterlimit="10"/>
<path d="M40.3174 31.603C41.1571 31.195 42.4257 30.685 44.0695 30.413C45.1772 30.226 46.6423 30.005 48.4469 30.413C50.3766 30.855 51.6273 31.773 52.199 32.198C53.4676 33.15 54.2537 34.187 54.7004 34.884" stroke="black" stroke-miterlimit="10"/>
<path d="M90.113 31.603C89.2733 31.195 88.0047 30.685 86.3609 30.413C85.2532 30.226 83.7881 30.005 81.9835 30.413C80.0538 30.855 78.8031 31.773 78.2314 32.198C76.9628 33.15 76.1767 34.187 75.73 34.884" stroke="black" stroke-miterlimit="10"/>
<path d="M93.0613 63.563C95.8307 66.011 97.7425 68.357 99.011 70.108C100.583 72.284 101.584 74.154 102.459 75.769C103.853 78.37 104.729 80.427 105.282 81.719C105.783 82.909 106.783 85.357 107.784 88.57C108.266 90.083 108.999 92.48 109.66 95.71C110.178 98.311 110.517 99.943 110.607 102.255C110.714 105.315 110.303 107.61 109.981 109.395C109.213 113.628 108.82 115.736 107.158 117.742C105.872 119.289 104.461 120.054 102.156 121.312C100.762 122.077 98.4036 123.216 95.2768 123.998C92.0071 124.814 89.5415 124.848 85.575 124.899C81.7514 124.95 79.8039 125.052 77.7492 124.593C75.7123 124.134 73.2467 123.59 71.1741 121.618C69.2444 119.782 68.6905 117.708 68.0473 115.362C67.3326 112.71 66.6716 110.279 67.7257 107.627C68.7263 105.145 70.6917 103.768 72.4248 102.561C75.087 100.708 77.7134 99.926 79.3036 99.586" stroke="black" stroke-miterlimit="10"/>
<path d="M38.8524 63.563C36.083 66.011 34.1712 68.357 32.9027 70.108C31.3304 72.284 30.3298 74.154 29.4543 75.769C28.0607 78.37 27.1852 80.427 26.6313 81.719C26.131 82.909 25.1305 85.357 24.1299 88.57C23.6475 90.083 22.915 92.48 22.2539 95.71C21.7357 98.311 21.3963 99.943 21.3069 102.255C21.1997 105.315 21.6107 107.61 21.9323 109.395C22.7006 113.628 23.0936 115.736 24.7553 117.742C26.0417 119.289 27.4532 120.054 29.7581 121.312C31.1517 122.077 33.5102 123.216 36.6369 123.998C39.9066 124.814 42.3723 124.848 46.3388 124.899C50.1623 124.95 52.1098 125.052 54.1645 124.593C56.2014 124.134 58.6671 123.59 60.7396 121.618C62.6693 119.782 63.2232 117.708 63.8664 115.362C64.5811 112.71 65.2422 110.279 64.188 107.627C63.1874 105.145 61.2221 103.768 59.4889 102.561C56.8267 100.708 54.2003 99.926 52.6101 99.586" stroke="black" stroke-miterlimit="10"/>
<path d="M73.9253 124.967H55.6115C50.43 124.967 46.2134 120.972 46.2134 116.025V78.6759C46.2134 73.7459 50.4122 69.7339 55.6115 69.7339H73.9253C79.1067 69.7339 83.3234 73.7289 83.3234 78.6759V116.042C83.3055 120.972 79.1067 124.967 73.9253 124.967Z" fill="white" stroke="black" stroke-miterlimit="10"/>
<path d="M63.6342 45.1011C63.5449 45.6791 63.2948 46.7501 62.455 47.7871C62.0977 48.2121 61.3115 49.1981 59.8643 49.5721C58.8816 49.8271 58.0418 49.6741 57.5237 49.5721C56.1479 49.3001 55.201 48.6371 54.7007 48.2291" stroke="black" stroke-miterlimit="10"/>
<path d="M64.6167 44.8799C64.706 45.4579 64.9562 46.5289 65.7959 47.5659C66.1533 47.9909 66.9394 48.9769 68.3867 49.3509C69.3693 49.6059 70.2091 49.4529 70.7272 49.3509C72.103 49.0789 73.05 48.4159 73.5503 48.0079" stroke="black" stroke-miterlimit="10"/>
<path d="M65.5814 69.1388L72.3531 64.6678C74.7651 63.0698 73.5859 59.4658 70.6378 59.4658H57.0767C54.1465 59.4658 52.9494 63.0698 55.3614 64.6678L62.1331 69.1388C63.1872 69.8188 64.5451 69.8188 65.5814 69.1388Z" stroke="black" stroke-miterlimit="10"/>
<path d="M61.9189 125.477L55.1473 129.948C52.7352 131.546 53.9145 135.15 56.8625 135.15H70.4237C73.3539 135.15 74.551 131.546 72.1389 129.948L65.3673 125.477C64.3131 124.797 62.9552 124.797 61.9189 125.477Z" stroke="black" stroke-miterlimit="10"/>
<path d="M29.4365 94.9112C36.5215 94.9112 42.2651 86.4323 42.2651 75.9732C42.2651 65.514 36.5215 57.0352 29.4365 57.0352C22.3515 57.0352 16.6079 65.514 16.6079 75.9732C16.6079 86.4323 22.3515 94.9112 29.4365 94.9112Z" fill="black" stroke="white" stroke-miterlimit="10"/>
<path d="M29.4542 94.2821C36.0261 94.2821 41.3537 86.0848 41.3537 75.9731C41.3537 65.8613 36.0261 57.6641 29.4542 57.6641C22.8823 57.6641 17.5547 65.8613 17.5547 75.9731C17.5547 86.0848 22.8823 94.2821 29.4542 94.2821Z" fill="white" stroke="black" stroke-miterlimit="10"/>
</g>
<path d="M13.064 181.108C13.064 180.844 13.076 180.58 13.1 180.316C13.124 180.028 13.172 179.776 13.244 179.56C13.868 179.512 14.348 179.404 14.684 179.236C15.02 179.044 15.26 178.732 15.404 178.3C15.548 177.844 15.62 177.22 15.62 176.428V158.068L15.8 158.464C15.272 158.344 14.744 158.26 14.216 158.212C13.712 158.164 13.22 158.14 12.74 158.14C10.748 158.14 9.356 158.584 8.564 159.472C7.772 160.36 7.376 161.476 7.376 162.82C7.376 164.188 7.676 165.28 8.276 166.096C8.876 166.912 9.68 167.512 10.688 167.896C11.696 168.256 12.812 168.436 14.036 168.436C14.3 168.436 14.552 168.424 14.792 168.4C15.056 168.376 15.332 168.34 15.62 168.292V169.552H11.912C10.088 169.408 8.576 169.06 7.376 168.508C6.2 167.932 5.312 167.188 4.712 166.276C4.136 165.34 3.848 164.284 3.848 163.108C3.848 161.956 4.136 160.888 4.712 159.904C5.288 158.896 6.236 158.092 7.556 157.492C8.876 156.892 10.64 156.592 12.848 156.592C13.376 156.592 14.06 156.604 14.9 156.628C15.74 156.652 16.64 156.664 17.6 156.664C18.056 156.664 18.548 156.664 19.076 156.664C19.628 156.64 20.132 156.628 20.588 156.628C21.068 156.604 21.428 156.592 21.668 156.592C21.668 156.88 21.656 157.144 21.632 157.384C21.608 157.624 21.56 157.864 21.488 158.104C20.84 158.104 20.336 158.2 19.976 158.392C19.616 158.584 19.364 158.908 19.22 159.364C19.076 159.796 19.004 160.42 19.004 161.236V176.428C19.004 177.22 19.076 177.844 19.22 178.3C19.364 178.732 19.616 179.044 19.976 179.236C20.336 179.404 20.84 179.512 21.488 179.56C21.56 179.8 21.608 180.052 21.632 180.316C21.656 180.58 21.668 180.844 21.668 181.108C21.14 181.06 20.444 181.024 19.58 181C18.716 181 17.972 181 17.348 181C17.06 181 16.676 181 16.196 181C15.716 181 15.2 181 14.648 181C14.12 181.024 13.592 181.06 13.064 181.108ZM6.152 181.324C5.576 181.228 5.072 181.156 4.64 181.108C4.208 181.06 3.752 181.024 3.272 181C2.792 181 2.192 181 1.472 181C1.424 180.832 1.388 180.664 1.364 180.496C1.34 180.328 1.316 180.16 1.292 179.992C1.292 179.824 1.292 179.68 1.292 179.56C2.18 179.464 2.864 179.2 3.344 178.768C3.824 178.336 4.184 177.796 4.424 177.148C4.664 176.5 4.868 175.816 5.036 175.096C5.228 174.376 5.444 173.668 5.684 172.972C5.924 172.276 6.272 171.64 6.728 171.064C7.208 170.464 7.856 169.996 8.672 169.66C9.512 169.3 10.616 169.12 11.984 169.12H15.62V169.984C14.084 169.984 12.848 170.164 11.912 170.524C11 170.884 10.292 171.364 9.788 171.964C9.308 172.564 8.948 173.248 8.708 174.016C8.492 174.784 8.312 175.564 8.168 176.356C8 177.412 7.784 178.36 7.52 179.2C7.256 180.04 6.8 180.748 6.152 181.324ZM24.964 181.108C24.964 180.772 24.976 180.484 25 180.244C25.024 180.004 25.072 179.776 25.144 179.56C25.864 179.56 26.392 179.356 26.728 178.948C27.088 178.516 27.268 177.676 27.268 176.428V169.084C27.268 167.836 27.088 167.008 26.728 166.6C26.392 166.168 25.864 165.952 25.144 165.952C25.072 165.736 25.024 165.508 25 165.268C24.976 165.004 24.964 164.716 24.964 164.404C25.324 164.428 25.756 164.452 26.26 164.476C26.788 164.476 27.532 164.488 28.492 164.512C29.476 164.512 30.808 164.512 32.488 164.512H35.8C37.504 164.512 38.836 164.512 39.796 164.512C40.756 164.488 41.5 164.476 42.028 164.476C42.556 164.452 42.988 164.428 43.324 164.404C43.324 164.716 43.312 165.004 43.288 165.268C43.264 165.508 43.216 165.736 43.144 165.952C42.424 165.952 41.884 166.168 41.524 166.6C41.188 167.008 41.02 167.836 41.02 169.084V176.428C41.02 177.676 41.188 178.516 41.524 178.948C41.884 179.356 42.424 179.56 43.144 179.56C43.216 179.776 43.264 180.004 43.288 180.244C43.312 180.484 43.324 180.772 43.324 181.108C42.796 181.06 42.196 181.024 41.524 181C40.852 181 40.144 181 39.4 181C38.656 181 37.948 181 37.276 181C36.604 181.024 36.004 181.06 35.476 181.108C35.476 180.772 35.488 180.484 35.512 180.244C35.536 180.004 35.584 179.776 35.656 179.56C36.376 179.56 36.904 179.356 37.24 178.948C37.6 178.516 37.78 177.676 37.78 176.428V169.084C37.78 167.884 37.6 167.08 37.24 166.672C36.904 166.24 36.376 166.024 35.656 166.024H32.632C31.912 166.024 31.372 166.24 31.012 166.672C30.676 167.08 30.508 167.884 30.508 169.084V176.428C30.508 177.676 30.676 178.516 31.012 178.948C31.372 179.356 31.912 179.56 32.632 179.56C32.704 179.776 32.752 180.004 32.776 180.244C32.8 180.484 32.812 180.772 32.812 181.108C32.284 181.06 31.684 181.024 31.012 181C30.34 181 29.632 181 28.888 181C28.144 181 27.436 181 26.764 181C26.092 181.024 25.492 181.06 24.964 181.108ZM54.1971 181.324C52.5651 181.324 51.1371 180.976 49.9131 180.28C48.6891 179.56 47.7411 178.564 47.0691 177.292C46.3971 175.996 46.0611 174.484 46.0611 172.756C46.0611 171.124 46.4091 169.66 47.1051 168.364C47.8011 167.068 48.7611 166.048 49.9851 165.304C51.2091 164.56 52.6131 164.188 54.1971 164.188C55.9011 164.188 57.3531 164.548 58.5531 165.268C59.7771 165.988 60.7131 166.996 61.3611 168.292C62.0091 169.564 62.3331 171.052 62.3331 172.756C62.3331 174.388 61.9851 175.852 61.2891 177.148C60.6171 178.444 59.6691 179.464 58.4451 180.208C57.2451 180.952 55.8291 181.324 54.1971 181.324ZM54.4851 179.596C55.9251 179.596 56.9931 179.008 57.6891 177.832C58.3851 176.632 58.7331 175.084 58.7331 173.188C58.7331 171.7 58.5051 170.416 58.0491 169.336C57.6171 168.232 57.0291 167.392 56.2851 166.816C55.5411 166.216 54.7251 165.916 53.8371 165.916C52.4451 165.916 51.4011 166.48 50.7051 167.608C50.0331 168.736 49.6971 170.2 49.6971 172C49.6971 173.608 49.8891 174.988 50.2731 176.14C50.6811 177.268 51.2451 178.132 51.9651 178.732C52.6851 179.308 53.5251 179.596 54.4851 179.596ZM76.2013 181.108C76.2013 180.772 76.2133 180.484 76.2373 180.244C76.2613 180.004 76.3093 179.776 76.3813 179.56C77.1493 179.56 77.7253 179.356 78.1093 178.948C78.4933 178.516 78.6853 177.676 78.6853 176.428V169.084C78.6853 167.836 78.4933 167.008 78.1093 166.6C77.7253 166.168 77.1493 165.952 76.3813 165.952C76.3093 165.736 76.2613 165.508 76.2373 165.268C76.2133 165.004 76.2013 164.716 76.2013 164.404C76.7533 164.428 77.3773 164.452 78.0733 164.476C78.7933 164.5 79.5373 164.512 80.3053 164.512C81.0733 164.512 81.8173 164.5 82.5373 164.476C83.2573 164.452 83.8813 164.428 84.4093 164.404C84.4093 164.716 84.3973 165.004 84.3733 165.268C84.3493 165.508 84.3013 165.736 84.2293 165.952C83.4613 165.952 82.8853 166.168 82.5013 166.6C82.1173 167.008 81.9253 167.836 81.9253 169.084V176.428C81.9253 177.676 82.1173 178.516 82.5013 178.948C82.8853 179.356 83.4613 179.56 84.2293 179.56C84.3013 179.776 84.3493 180.004 84.3733 180.244C84.3973 180.484 84.4093 180.772 84.4093 181.108C83.8813 181.06 83.2573 181.024 82.5373 181C81.8173 181 81.0733 181 80.3053 181C79.5373 181 78.7933 181 78.0733 181C77.3773 181.024 76.7533 181.06 76.2013 181.108ZM65.0773 181.108C65.0773 180.772 65.0893 180.484 65.1133 180.244C65.1373 180.004 65.1853 179.776 65.2573 179.56C66.0253 179.56 66.6013 179.356 66.9853 178.948C67.3693 178.516 67.5613 177.676 67.5613 176.428V169.084C67.5613 167.836 67.3693 167.008 66.9853 166.6C66.6013 166.168 66.0253 165.952 65.2573 165.952C65.1853 165.736 65.1373 165.508 65.1133 165.268C65.0893 165.004 65.0773 164.716 65.0773 164.404C65.6293 164.428 66.2533 164.452 66.9493 164.476C67.6693 164.5 68.4133 164.512 69.1813 164.512C69.9493 164.512 70.6933 164.5 71.4133 164.476C72.1333 164.452 72.7573 164.428 73.2852 164.404C73.2852 164.716 73.2733 165.004 73.2493 165.268C73.2253 165.508 73.1773 165.736 73.1053 165.952C72.3373 165.952 71.7613 166.168 71.3773 166.6C70.9933 167.008 70.8013 167.836 70.8013 169.084V176.428C70.8013 177.676 70.9933 178.516 71.3773 178.948C71.7613 179.356 72.3373 179.56 73.1053 179.56C73.1773 179.776 73.2253 180.004 73.2493 180.244C73.2733 180.484 73.2852 180.772 73.2852 181.108C72.7573 181.06 72.1333 181.024 71.4133 181C70.6933 181 69.9493 181 69.1813 181C68.4133 181 67.6693 181 66.9493 181C66.2533 181.024 65.6293 181.06 65.0773 181.108ZM70.6213 173.548V171.856H78.8293V173.368C78.1333 173.368 77.2693 173.38 76.2373 173.404C75.2293 173.404 74.2093 173.416 73.1773 173.44C72.1693 173.464 71.3173 173.5 70.6213 173.548ZM98.4988 181.108C98.4988 180.772 98.5108 180.484 98.5348 180.244C98.5588 180.004 98.6068 179.776 98.6788 179.56C99.3988 179.56 99.9268 179.356 100.263 178.948C100.623 178.516 100.803 177.676 100.803 176.428V169.084C100.803 167.836 100.623 167.008 100.263 166.6C99.9268 166.168 99.3988 165.952 98.6788 165.952C98.6068 165.736 98.5588 165.508 98.5348 165.268C98.5108 165.004 98.4988 164.716 98.4988 164.404C99.0268 164.428 99.6268 164.452 100.299 164.476C100.971 164.5 101.679 164.512 102.423 164.512C103.167 164.512 103.875 164.5 104.547 164.476C105.219 164.452 105.819 164.428 106.347 164.404C106.347 164.716 106.335 165.004 106.311 165.268C106.287 165.508 106.239 165.736 106.167 165.952C105.447 165.952 104.907 166.168 104.547 166.6C104.211 167.008 104.043 167.836 104.043 169.084V176.428C104.043 177.676 104.211 178.516 104.547 178.948C104.907 179.356 105.447 179.56 106.167 179.56C106.239 179.776 106.287 180.004 106.311 180.244C106.335 180.484 106.347 180.772 106.347 181.108C105.819 181.06 105.219 181.024 104.547 181C103.875 181 103.167 181 102.423 181C101.679 181 100.971 181 100.299 181C99.6268 181.024 99.0268 181.06 98.4988 181.108ZM87.0148 181.108C87.0148 180.772 87.0268 180.484 87.0508 180.244C87.0748 180.004 87.1228 179.776 87.1948 179.56C87.9148 179.56 88.4428 179.356 88.7788 178.948C89.1388 178.516 89.3188 177.676 89.3188 176.428V169.084C89.3188 167.836 89.1388 167.008 88.7788 166.6C88.4428 166.168 87.9148 165.952 87.1948 165.952C87.1228 165.736 87.0748 165.508 87.0508 165.268C87.0268 165.004 87.0148 164.716 87.0148 164.404C87.5428 164.428 88.1428 164.452 88.8148 164.476C89.4868 164.5 90.1948 164.512 90.9388 164.512C91.6828 164.512 92.3908 164.5 93.0628 164.476C93.7348 164.452 94.3348 164.428 94.8628 164.404C94.8628 164.716 94.8508 165.004 94.8268 165.268C94.8028 165.508 94.7548 165.736 94.6828 165.952C93.9628 165.952 93.4228 166.168 93.0628 166.6C92.7268 167.008 92.5588 167.836 92.5588 169.084V176.428C92.5588 177.676 92.7268 178.516 93.0628 178.948C93.4228 179.356 93.9628 179.56 94.6828 179.56C94.7548 179.776 94.8028 180.004 94.8268 180.244C94.8508 180.484 94.8628 180.772 94.8628 181.108C94.3348 181.06 93.7348 181.024 93.0628 181C92.3908 181 91.6828 181 90.9388 181C90.1948 181 89.4868 181 88.8148 181C88.1428 181.024 87.5428 181.06 87.0148 181.108ZM91.9108 178.228V176.068L101.559 167.176V169.3L91.9108 178.228ZM117.808 181.072C117.808 180.808 117.82 180.532 117.844 180.244C117.868 179.956 117.916 179.728 117.988 179.56C118.684 179.536 119.152 179.38 119.392 179.092C119.656 178.78 119.788 178.084 119.788 177.004V165.412L119.932 166.24C119.548 166.144 119.164 166.084 118.78 166.06C118.396 166.012 118.036 165.988 117.7 165.988C116.308 165.988 115.324 166.276 114.748 166.852C114.172 167.404 113.884 168.172 113.884 169.156C113.884 170.356 114.292 171.28 115.108 171.928C115.948 172.552 117.088 172.864 118.528 172.864C118.768 172.864 118.972 172.852 119.14 172.828C119.332 172.804 119.548 172.78 119.788 172.756V173.944H116.728C115.528 173.872 114.436 173.644 113.452 173.26C112.468 172.876 111.688 172.348 111.112 171.676C110.56 170.98 110.284 170.176 110.284 169.264C110.284 168.472 110.512 167.704 110.968 166.96C111.448 166.216 112.24 165.616 113.344 165.16C114.448 164.68 115.924 164.44 117.772 164.44C118.252 164.44 118.804 164.452 119.428 164.476C120.052 164.5 120.748 164.512 121.516 164.512C122.068 164.512 122.716 164.512 123.46 164.512C124.204 164.488 124.756 164.464 125.116 164.44C125.116 164.56 125.104 164.716 125.08 164.908C125.08 165.076 125.068 165.256 125.044 165.448C125.044 165.616 125.02 165.772 124.972 165.916C124.444 165.94 124.036 166.024 123.748 166.168C123.46 166.312 123.256 166.552 123.136 166.888C123.016 167.2 122.956 167.68 122.956 168.328V177.112C122.956 178.096 123.088 178.744 123.352 179.056C123.64 179.344 124.18 179.512 124.972 179.56C125.068 179.92 125.116 180.424 125.116 181.072C124.636 181.048 124.048 181.024 123.352 181C122.68 181 122.14 181 121.732 181C121.42 181 121.036 181 120.58 181C120.124 181 119.644 181 119.14 181C118.66 181.024 118.216 181.048 117.808 181.072ZM112.948 181.216C112.444 181.144 111.964 181.096 111.508 181.072C111.052 181.048 110.584 181.024 110.104 181C109.648 181 109.144 181 108.592 181C108.544 180.856 108.496 180.688 108.448 180.496C108.424 180.304 108.4 180.124 108.376 179.956C108.376 179.764 108.376 179.632 108.376 179.56C109.168 179.488 109.756 179.308 110.14 179.02C110.548 178.708 110.836 178.36 111.004 177.976C111.172 177.568 111.328 177.196 111.472 176.86C111.664 176.38 111.952 175.912 112.336 175.456C112.744 174.976 113.272 174.58 113.92 174.268C114.592 173.932 115.42 173.764 116.404 173.764H119.788V174.412C118.372 174.412 117.316 174.58 116.62 174.916C115.924 175.228 115.432 175.66 115.144 176.212C114.88 176.764 114.664 177.376 114.496 178.048C114.28 178.912 114.088 179.56 113.92 179.992C113.752 180.4 113.428 180.808 112.948 181.216Z" fill="#5D3030"/>
<defs>
<clipPath id="clip0_34_744">
<rect width="96" height="136" fill="white" transform="translate(15.5)"/>
</clipPath>
</defs>
</svg>
