<?xml version="1.0" encoding="UTF-8"?><svg xmlns="http://www.w3.org/2000/svg" viewBox="0 0 1859 1123.18"><defs><style>.e,.f,.g,.h{stroke:#000;stroke-miterlimit:10;}.e,.f,.h{stroke-width:11px;}.e,.g{fill:none;}.f{fill:#f3b6da;}.i{font-family:ComicSansMS, Comic Sans MS;font-size:135px;}.j,.h{fill:#42a5f7;}</style></defs><g id="a"><path class="g" d="M1542.5,1122.68h0Z"/><g><path class="f" d="M1524,638.18c-56.33-16.2-80.81-22-86.78-34.3-10.87-99.71-52.73-183.81-141.5-237.14-12.1-7.27-7.39-1.89-10.41,.43-9.09,7-39.24-12.97-46.81-15.49-9-3-29,15-38,28s-18.5,71.5-56,47c-29.97-19.58-53.5,19.5-57,32-10.98,39.23-21.85,52-39,51-17.43-1.02-11.69-1.16-23-22-7.24-13.34-29.8-26.51-38-23-19.67,8.43-26,15-36,8s-19-25.4-33-25c-14,.4-22.7,58.5-43,56-24.99-3.08-29.34-10.65-30-7-9,17-19,61-28.39,84.33-8.01,19.91-16.22,37.86-28.11,47.17-23,18-35,8-61,15-25.91,6.98-36,28-35,40s11,27,50,27c21.94,0,47.81-4.99,63,8,11.82,10.11,15.88,34.19,15,60-2,59,42,59,42,59,0,0,42,4.28,54-81.36,7-44.28,37.5,6.86,68.5,1.86,27.03-1.69,51.32-29.95,61.83-44.11,2.74-3.69,7.08-5.84,11.68-5.83,63.57,.21,439.9-2.44,458.29-2.56,10.57-1.56,44.85-.03,45.7-23,.5-13.5-2.5-33.5-39-44Z"/><path class="h" d="M869.2,528.18c24.8-6,35.8-57.2,49.8-57.6,14-.4,17.78,27.79,29,32.6,17.5,7.5,18.59-15.57,39-22,36.5-11.5,15.59,81.23,63,71,25.5-5.5,34-48.12,49-86,3.97-10.01,24.82-42.43,51-18,30,28,51-51,60-64s17-15,36.5-10.5c.23,.05,3.75,.93,4,1,26.82,7.98,44.08,10.98,48,2,4.58-10.49-5.56-20.2-39-34-42.21-17.42-88.15-29.5-136.5-29.5-125.7,0-250.5,83.43-275.5,169.5-3.05,10.52-5,20-2,32,2.24,8.94,11.87,16.36,23.7,13.5Z"/></g></g><g id="b"><path class="h" d="M903.5,616.68c-1.62,8.91-14,6-26,15-4.78,3.58-15.87,18.65-3,31,10.76,10.33,34,8,59,2,21.97-5.27,34.06-11.03,51-20.03,4.89-2.6,7.73-7.95,7.05-13.45-3.57-29.19-24.44-57.26-45.55-59.02-20.5-1.71-36.5,11.5-42.5,44.5Z"/><path class="h" d="M1279,523.18s-34.6-3.46-48,20c-12,21-34,30-34,30,0,0-20,7-39,14-16.39,6.04-25.24,15.47-24,32s29.05,9.58,46,12c14,2,12,16,42,20,10.11,1.35,106.39-3.6,137-7,18-2,20.87-20.56,21-25,.48-16.47-8-21-17-24-4.74-1.58-25-4-30-9-9-7-12-32-22-46s-32-17-32-17Z"/><g id="c"><path class="f" d="M1405.5,401.68l31,45,308-218s17-19,4-37c-15.76-21.83-37-6-37-6l-306,216Z"/><path class="j" d="M1509.51,393.61s8.71-30.73-14.01-55.93l-39.29,27.2c22.71,25.2,14.29,56.73,14.29,56.73l39-28Z"/><path class="j" d="M1585.51,337.61s10.71-29.73-12.01-54.93l-40,28c22.71,25.2,14.01,54.93,14.01,54.93l38-28Z"/><path class="j" d="M1659.51,288.61s8.42-31.53-14.29-56.73l-35.71,24.8c22.71,25.2,13.01,55.93,13.01,55.93l37-24Z"/><path class="j" d="M1726.5,240.68s8.43-29.6-14.29-54.8l-31,22c22.67,25.2,13.29,53.8,13.29,53.8l32-21Z"/><path class="e" d="M1405.5,401.68l31,45,308-218s17-19,4-37c-15.76-21.83-37-6-37-6l-306,216Z"/></g><path class="h" d="M882,904.82c0,18.9-10.19,26.86-23.83,26.86s-26.43-9.53-24.7-33.79c1.35-18.86,12.63-41.01,24.7-34.66,8.23,4.33,23.83,22.69,23.83,41.59Z"/><path class="h" d="M999,815.48c0,15.62-7.68,22.2-17.96,22.2s-19.91-7.88-18.61-27.93c1.01-15.59,9.51-33.9,18.61-28.65,6.2,3.58,17.96,18.75,17.96,34.38Z"/></g><g id="d"><text class="i" transform="translate(764.47 551.84) rotate(-66.72)"><tspan x="0" y="0">S</tspan></text><text class="i" transform="translate(789.82 480.46) rotate(-53.41)"><tspan x="0" y="0">W</tspan></text><text class="i" transform="translate(863.07 383.43) rotate(-39.95)"><tspan x="0" y="0">E</tspan></text><text class="i" transform="translate(922.65 332.59) rotate(-27.92)"><tspan x="0" y="0">E</tspan></text><text class="i" transform="translate(990.96 294.99) rotate(-14.67)"><tspan x="0" y="0">T</tspan></text><text class="i" transform="translate(1063.57 276.64) rotate(-6.46)"><tspan x="0" y="0"> </tspan></text><text class="i" transform="translate(1088.47 273.26) rotate(-2.29)"><tspan x="0" y="0"> </tspan></text><text class="i" transform="translate(1113.58 271.71) rotate(1.85)"><tspan x="0" y="0"> </tspan></text><text class="i" transform="translate(1136.68 265.37) rotate(13.84)"><tspan x="0" y="0">W</tspan></text><text class="i" transform="translate(1247.96 291.51) rotate(29.67)"><tspan x="0" y="0">O</tspan></text><text class="i" transform="translate(1320.87 333.87) rotate(37.49)"><tspan x="0" y="0"> </tspan></text><text class="i" transform="translate(1336.37 342.84) rotate(43.43)"><tspan x="0" y="0">R</tspan></text><text class="i" transform="translate(1385.94 390.27) rotate(50.11)"><tspan x="0" y="0"> </tspan></text><text class="i" transform="translate(1402.56 409.44) rotate(53.68)"><tspan x="0" y="0"> </tspan></text><text class="i" transform="translate(1417.98 429.64) rotate(57.19)"><tspan x="0" y="0"> </tspan></text><text class="i" transform="translate(1433.38 448.44) rotate(64.3)"><tspan x="0" y="0">D</tspan></text></g></svg>