<svg width="157" height="33" viewBox="0 0 157 33" fill="none" xmlns="http://www.w3.org/2000/svg">
<path d="M16.1126 0.610107L19.6138 11.386L30.9443 11.386L21.7778 18.0458L25.2791 28.8217L16.1126 22.1618L6.94606 28.8217L10.4473 18.0458L1.28085 11.386L12.6113 11.386L16.1126 0.610107Z" fill="#5D3030"/>
<path d="M47.302 0.610107L50.8033 11.386L62.1337 11.386L52.9672 18.0458L56.4685 28.8217L47.302 22.1618L38.1355 28.8217L41.6368 18.0458L32.4703 11.386L43.8007 11.386L47.302 0.610107Z" fill="#5D3030"/>
<path d="M78.595 1L82.0963 11.7759L93.4267 11.7759L84.2602 18.4357L87.7615 29.2116L78.595 22.5517L69.4285 29.2116L72.9298 18.4357L63.7633 11.7759L75.0937 11.7759L78.595 1Z" fill="#5D3030"/>
<path d="M109.683 0.610107L113.184 11.386L124.515 11.386L115.348 18.0458L118.849 28.8217L109.683 22.1618L100.516 28.8217L104.018 18.0458L94.8512 11.386L106.182 11.386L109.683 0.610107Z" fill="#5D3030"/>
<path d="M140.872 0.610107L144.374 11.386L155.704 11.386L146.538 18.0458L150.039 28.8217L140.872 22.1618L131.706 28.8217L135.207 18.0458L126.041 11.386L137.371 11.386L140.872 0.610107Z" fill="#5D3030" fill-opacity="0.5"/>
</svg>
